<svg xmlns="http://www.w3.org/2000/svg" fill="#fff" width="160" height="32" viewBox="0 0 160 32"><path d="M30.16 14.484v.004c-.174.584-.813.904-1.394.716a1.136 1.136 0 0 1-.73-1.403c.583-1.79.234-3.85-1.13-5.35A5.486 5.486 0 0 0 21.7 6.76a1.136 1.136 0 0 1-1.336-.856 1.13 1.13 0 0 1 .872-1.323 7.71 7.71 0 0 1 7.326 2.38 7.743 7.743 0 0 1 1.598 7.53zm-7.703-4.16v-.002a.954.954 0 0 1-1.134-.736.94.94 0 0 1 .728-1.136 3.742 3.742 0 0 1 3.58 1.152 3.73 3.73 0 0 1 .79 3.67.975.975 0 0 1-1.22.618c-.49-.165-.75-.706-.61-1.21a1.79 1.79 0 0 0-.37-1.792 1.85 1.85 0 0 0-1.74-.565zm.378 1.792c.494.718.465 1.727 0 2.897-.233.537.058.62.465.743 1.686.516 3.517 1.768 3.517 3.972 0 3.648-5.232 8.244-13.138 8.244-6.05 0-12.21-2.925-12.21-7.736 0-2.512 1.6-5.42 4.33-8.164 3.66-3.66 7.93-5.33 9.53-3.72.72.707.78 1.932.32 3.397-.24.73.69.32.69.33 2.96-1.24 5.55-1.32 6.48.03zm-1.017 7.545c-.292-3.15-4.447-5.33-9.273-4.86-4.797.48-8.458 3.43-8.138 6.59.32 3.16 4.476 5.34 9.272 4.86 4.82-.47 8.45-3.42 8.13-6.58zm-11.25 5.23c-2.326-.74-3.284-3.03-2.268-5.09.99-2.02 3.577-3.16 5.875-2.56 2.354.62 3.575 2.85 2.587 5.02-.96 2.23-3.81 3.41-6.19 2.64zm1.307-4.32c-.754-.31-1.713.01-2.178.73-.465.73-.233 1.59.493 1.93.756.34 1.744.02 2.21-.72.465-.75.232-1.6-.525-1.93zm1.833-.76c-.292-.11-.64.03-.815.31-.145.28-.058.61.233.72.29.12.64-.01.815-.3.18-.29.06-.61-.23-.72z" class="icon-weibo"/><path d="M59.783 13.373c.112-.708.187-1.528.187-2.423 0-3.84-1.827-5.18-2.2-5.815.523-2.907-.074-4.212-.373-4.66-1.044-.373-3.616.97-5.032 1.864-2.312-.68-7.156-.6-8.946.18C40.06.14 38.27.47 38.27.47s-1.156 2.05-.3 5.07c-1.11 1.418-1.93 2.388-1.93 5.035 0 .635.037 1.23.113 1.79 1.006 5.032 4.96 7.194 8.87 7.567-.595.448-1.304 1.306-1.378 2.275-.745.483-2.198.632-3.354.26-1.6-.52-2.23-3.69-4.66-3.244-.52.112-.41.447.04.745.75.486 1.42 1.08 1.98 2.35.41.97 1.27 2.72 3.99 2.72 1.08 0 1.83-.11 1.83-.11s.04 2.496.04 3.464c0 1.118-1.49 1.417-1.49 1.976 0 .225.49.225.9.225.79 0 2.43-.67 2.43-1.826v-4.55c0-1.195.64-1.568.64-1.568s.08 6.33-.14 7.15c-.26 1-.74.85-.74 1.3 0 .67 1.98.15 2.65-1.31.52-1.12.3-7.35.3-7.35h.52v4.14c-.03 1.34-.14 3.05.64 3.84.53.52 2.13 1.45 2.13.59 0-.49-1.11-.9-1.11-2.24v-6.15c.67 0 .82 2.01.82 2.01l.26 3.72s-.15 1.38 1.45 1.94c.56.18 1.83.26 1.87-.08.08-.34-1.49-.86-1.49-1.9 0-.64.04-1.01.04-3.8 0-2.8-.37-3.84-1.67-4.66 3.73-.38 7.64-2.09 8.35-6.53z" class="icon-github"/><path d="M83.714 17.12c-.04-.082-.12-.12-.24-.042L80.8 18.635c-.32.2-.678.2-1 0l-2.315-1.318a.255.255 0 0 0-.24 0l-8.905 8.226c-.04.04-.04.08-.04.2 0 .04.04.08.08.16.2.04.32.08.4.08h22.722c.04 0 .12-.04.198-.08 0-.12 0-.2-.04-.24l-7.946-8.545zm-8.704-.76c.04-.04.04-.08.04-.16s-.04-.16-.08-.16l-6.91-3.95a.255.255 0 0 0-.24 0c-.04 0-.08.04-.08.16v10.42c0 .082.04.162.16.2h.08c.04 0 .08 0 .08-.038l6.95-6.47zm17.13-4.472h-.2L85.35 15.8c-.04 0-.08.04-.08.16-.04.04 0 .08.04.16l6.59 7.108c.04.04.12.08.16.08h.08c.08-.08.16-.16.16-.2v-11.02c0-.08-.04-.16-.16-.2zm-.64-5.87h-23c-.24 0-.398.08-.6.2a.822.822 0 0 0-.24.6V9.37c0 .12.042.2.16.2l12.14 6.908c.04 0 .12 0 .16-.04l11.7-6.828c.04-.04.12-.04.16-.04.04 0 .08 0 .158-.04.12 0 .2-.04.2-.2V6.857c0-.24-.08-.48-.24-.6-.2-.16-.4-.24-.598-.24z" class="icon-mail"/><path d="M111.363 16.24c-3.712-3.39-10.35-4.187-10.35-4.187-.746 0-1.353.506-1.353 1.234v2.31c0 .724.607 1.23 1.354 1.235 0 0 4.265.11 6.828 2.423 3.382 3.054 3.288 7.288 3.288 7.288 0 .73.352 1.32 1.1 1.32h2.625c.747 0 .93-.59.93-1.32 0 0-.624-6.834-4.422-10.3zm-8.19 5.164c-1.854 0-3.358 1.465-3.358 3.268 0 1.81 1.504 3.27 3.357 3.27 1.856 0 3.36-1.46 3.36-3.27 0-1.803-1.504-3.268-3.36-3.268zm14.833-9.748c-5.84-6.857-16.99-7.598-16.99-7.598-.746 0-1.355.508-1.355 1.238v2.306c0 .73.61 1.234 1.36 1.234 0 0 7.97.252 12.47 5.422 6.16 6.17 5.7 12.337 5.7 12.337 0 .73.61 1.32 1.36 1.32h2.63c.75 0 1.19-.59 1.19-1.32 0 0-.55-9.702-6.33-14.94z" class="icon-rss"/><path d="M134.628 16.7c-.506.297-1.145.383-1.686.383-1.5 0-2.642-1.173-2.642-2.56 0-1.108.816-2.046 2.11-2.046.917 0 1.578.51 1.712.823.02.122.045.455.045.59l.163.05c.008-.674.05-1.414.155-2.195l-.164.036c-.02.09-.1.54-.14.64a6.696 6.696 0 0 0-1.48-.18c-.71 0-1.38.1-2.12.59a2.508 2.508 0 0 0-1.12 2.13c0 .91.55 1.72 1.47 2.18.58.29 1.35.32 1.62.32 1.12 0 1.84-.29 2-.43l.1-.3zm4.77-2.028c.653-.304 1.193-.896 1.193-1.344 0-.39-.27-.66-.72-.81-.57-.19-1.58-.2-2.38-.2l-1.82.008.03.15c.19.017.76.057.91.087.04.135.05 1.5.05 1.755v.434c0 .747-.01 2.14-.04 2.345-.23.052-.77.094-.89.1l-.03.15a39.863 39.863 0 0 1 1.43-.028c.39 0 1.25.01 1.46.02l-.03-.15c-.18-.02-.74-.07-.89-.11a45.157 45.157 0 0 1-.04-1.88v-.19c.15 0 .49-.02.82-.04.14.15 2.39 2.33 2.98 2.56l.37-.05c-.88-.78-2.24-2.65-2.33-2.82v-.01zm-.795 0a3.48 3.48 0 0 1-1.032.137v-.23c0-.51.02-1.78.05-2.07 1.47 0 1.96.55 1.96 1.01 0 .7-.6 1.03-.96 1.14zm5.784-2.11c.255-.027.603-.085.747-.102l.034-.146c-.12.016-.73.026-1.093.026-.562 0-1.216-.01-1.35-.026l.035.148c.138.017.605.073.748.1.027.242.037 1.572.037 1.804v.42c0 .697-.01 2.013-.037 2.31-.15.028-.633.095-.754.098l-.027.15c.212-.013.866-.027 1.108-.027.44 0 1.18.016 1.336.028l-.03-.15a7.778 7.778 0 0 1-.74-.098c-.02-.142-.03-1.33-.03-2.255v-.44c0-.874.01-1.7.04-1.84zm8.38 4.635c-.117-.02-.378-.057-.542-.1-.11-.447-.733-3.736-.856-4.534.13-.035.45-.084.54-.1l.02-.147a17.54 17.54 0 0 1-.91.026c-.23 0-.68-.012-.89-.026l.03.148c.11.022.32.05.44.1-.02.163-1.15 3.107-1.34 3.51-.21-.543-1-2.867-1.19-3.51.12-.03.3-.08.49-.104l.02-.146c-.18.016-.7.026-.98.026-.35 0-.86-.01-.95-.026l.04.148c.07.017.47.073.65.1-.1.584-.81 4.094-.96 4.542-.15.045-.36.073-.47.093l-.05.15c.21-.014.55-.028.72-.028.12 0 .88.01.98.02l-.03-.15a9.41 9.41 0 0 1-.58-.1c-.03-.92.36-2.89.53-3.98h.03c.07.27 1.31 3.81 1.49 4.25.2-.41 1.49-3.82 1.66-4.25h.02c.08.52.65 3.72.66 3.98-.13.01-.63.07-.72.08l-.01.15c.19-.02.91-.03 1.21-.03.3 0 .7.01.92.03l-.03-.15h.01zm3.54-2.786c.22-.27 1.48-1.8 1.61-1.84.112-.02.305-.06.44-.1l.012-.15a13.622 13.622 0 0 1-1.67 0l.02.15c.09.02.38.06.5.1-.18.36-.88 1.36-1.09 1.63-.17-.19-1.02-1.44-1.11-1.62.14-.03.33-.07.6-.1l.04-.15c-.29.02-2.13.02-2.22 0l.02.15c.15.03.33.06.46.1.32.34 1.18 1.57 1.68 2.21-.24.3-1.57 2.15-1.86 2.32-.14.06-.31.08-.45.1l-.05.15c.17-.01.37-.02.77-.02s.94.03 1.06.03l-.03-.15a6.15 6.15 0 0 1-.59-.09c.27-.56 1.12-1.88 1.31-2.09.31.36 1.46 1.9 2.44 2.65l.29-.07c-.51-.67-1.83-2.6-2.25-3.16h.01zm-24.663 4.43c-.17-.1-.32-.18-.32-.33 0-.1.08-.22.272-.22.154 0 .27.12.295.2.01.04.01.1.01.17l.06.03c0-.18.02-.39.06-.61l-.05.01c-.01.06-.02.13-.04.18-.05-.01-.17-.04-.3-.04-.33 0-.46.22-.46.4 0 .25.18.38.39.52.15.1.29.18.29.37 0 .17-.14.28-.31.28a.38.38 0 0 1-.35-.24 1.425 1.425 0 0 1-.01-.2l-.05-.01c.01.06 0 .3 0 .36 0 .08-.03.33-.04.36l.06-.01a4.95 4.95 0 0 1 .05-.23.797.797 0 0 0 .31.06c.31 0 .55-.17.55-.48 0-.28-.19-.4-.37-.52h.01zm3.54-.58a10.3 10.3 0 0 1-.744.02c-.3 0-.684-.01-.72-.02-.008-.04-.012-.11-.015-.14l-.05-.01c0 .18-.026.46-.035.56l.05-.01c.015-.07.03-.16.047-.2.06-.04.22-.09.577-.09.006.06.01.39.01.55v.1c0 .2-.005.58-.01.75-.055.01-.235.03-.287.04l-.01.05c.063 0 .33-.01.43-.01.124 0 .385 0 .44.01l-.01-.05c-.043 0-.247-.02-.288-.03a18.43 18.43 0 0 1-.02-.75v-.1c0-.16 0-.48.01-.55.21 0 .52.05.58.09 0 .05 0 .15-.01.24l.05.02c0-.06.05-.52.07-.57l-.06.01c-.01.05-.03.11-.04.14v-.01zm3.023.31c0-.12-.073-.21-.192-.26-.15-.05-.417-.06-.628-.06h-.483l.007.05c.05.01.2.02.24.03.01.05.01.47.01.55V19c0 .233 0 .67-.01.737-.06.014-.2.027-.23.03l-.01.045c.06-.003.29-.01.38-.01.1 0 .33.007.39.01l-.01-.045c-.05-.007-.19-.017-.23-.03 0-.102-.01-.448-.01-.592v-.058c.04 0 .13-.006.22-.014.04.046.63.733.79.802l.1-.015c-.23-.245-.59-.83-.61-.885.17-.097.31-.283.31-.42v.003zm-.526.42a.733.733 0 0 1-.27.04v-.07c0-.15.01-.55.02-.65.39 0 .52.18.52.32a.376.376 0 0 1-.25.36zm3.8.76c-.1-.19-.24-.57-.3-.74a14.44 14.44 0 0 1-.23-.68c.05-.01.11-.02.17-.03l.01-.04a5.516 5.516 0 0 1-.67 0v.05c.06.01.13.02.18.03-.03.09-.47 1.29-.55 1.43a1.817 1.817 0 0 1-.19.03l-.01.05a5.312 5.312 0 0 1 .6 0l-.01-.05a1.62 1.62 0 0 1-.19-.03c.02-.17.14-.59.16-.62a6.44 6.44 0 0 1 .52-.02c.04.06.2.54.24.65-.07.02-.15.02-.22.03l-.01.05a7.758 7.758 0 0 1 .74 0v-.05a2.857 2.857 0 0 1-.19-.02zm-1.02-.73c.03-.07.17-.46.24-.66h.01c.04.13.18.53.23.67l-.47-.01v.01zm3.88-.77l.01.05c.03.01.13.02.18.03 0 .1-.35.61-.38.68-.07-.12-.29-.44-.43-.68.06-.01.15-.02.2-.03l.01-.04a6.255 6.255 0 0 1-.69 0l.01.05c.05.01.13.02.16.03.11.1.53.73.55.78.01.06.01.12.01.15v.07c0 .15 0 .39-.01.43-.05.01-.15.03-.19.03l-.01.05a8.46 8.46 0 0 1 .31-.01c.15 0 .36.01.4.01v-.04c-.04-.01-.19-.02-.21-.03a6.237 6.237 0 0 1-.01-.42v-.08c0-.06 0-.12.01-.16.03-.1.49-.75.54-.76.05-.01.12-.02.15-.03l.01-.05a4.422 4.422 0 0 1-.56 0h.01zm2.93.73a.636.636 0 0 0 .29-.23.325.325 0 0 0 .06-.21c0-.1-.06-.29-.5-.29-.14 0-.56.02-.64.02l.01.05c.07.01.16.01.23.02.01.1.02.44.02.6v.14c0 .2 0 .53-.01.69-.05.01-.18.03-.23.03l-.01.05c.06-.01.29-.01.34-.01.05 0 .13 0 .21.01.08 0 .16.01.19.01.31 0 .52-.17.52-.42 0-.24-.24-.39-.46-.43zm-.3-.12c0-.2 0-.52.01-.54a.318.318 0 0 1 .1-.01c.18 0 .3.13.3.32 0 .12-.05.22-.13.28a.505.505 0 0 1-.27.08v-.12zm.21.91a.323.323 0 0 1-.17-.05 4.74 4.74 0 0 1-.03-.55v-.12a.522.522 0 0 1 .27.05c.15.08.25.25.25.4 0 .16-.09.27-.3.27h-.01zm3.22-1.51l.02.05c.06.01.19.02.25.03.01.07.01.48.01.56v.21c0 .27-.02.46-.15.58-.07.07-.17.11-.32.11-.24 0-.44-.16-.44-.63v-.29c0-.19.01-.47.01-.51.08-.01.17-.02.24-.03l.01-.05a7.058 7.058 0 0 1-.7 0l.01.05c.06.01.13.02.18.03.01.06.01.31.01.51v.35c0 .39.21.68.68.68a.684.684 0 0 0 .46-.15c.17-.156.22-.37.22-.62v-.383c0-.06 0-.34.01-.375.06-.02.12-.024.16-.034l.02-.043a4.6 4.6 0 0 1-.27.01 8.02 8.02 0 0 1-.36-.01l-.01.005zm3.12.88l.02.05c.05.01.18.02.23.03.01.04.01.11.01.18v.34a.674.674 0 0 1-.28.06c-.48 0-.79-.46-.79-.82 0-.36.26-.65.65-.65.37 0 .52.15.58.22.01.06.02.13.03.21l.05.03a5.573 5.573 0 0 1 .03-.68l-.05.01c0 .05-.03.17-.04.21-.07-.03-.3-.06-.49-.06-.23 0-.45.04-.66.18a.795.795 0 0 0-.35.67c0 .28.16.53.44.67.19.1.45.11.6.11.15 0 .44-.03.57-.07-.01-.06-.01-.18-.01-.26v-.07c0-.06 0-.21.01-.24.05-.01.17-.02.19-.03l.01-.046h-.35a6.827 6.827 0 0 1-.36-.006zm2.75-.28c-.17-.1-.32-.18-.32-.33 0-.1.08-.22.27-.22.16 0 .28.12.3.2.01.04.01.1.01.17l.05.03c0-.18.02-.39.06-.61l-.05.01c-.01.06-.02.13-.03.18-.05-.01-.17-.04-.3-.04-.33 0-.46.22-.46.39 0 .26.18.38.39.52.15.09.29.18.29.36 0 .17-.14.28-.32.28a.378.378 0 0 1-.34-.24 2.123 2.123 0 0 1-.01-.19l-.05-.02c.01.05 0 .29 0 .35 0 .09-.03.34-.03.37l.05-.01.05-.23a.827.827 0 0 0 .31.06c.3 0 .55-.17.55-.48 0-.28-.19-.4-.37-.52zm-24.06-7.48V10.1l.73 1.26h.67l-1.29-2.237 11.38-6.577v8.81h.58v-8.86l11.46 6.624-1.29 2.24h.67l.73-1.26v1.26h.58V8.84L144 1.675l-12.395 7.167v2.505m24.208 9.31v2.17L144.79 29.2l4.93-8.547h-.668l-4.8 8.33v-8.33h-.58v8.185l-4.722-8.182h-.667l4.928 8.545-11.02-6.37v-2.17h-.58v2.51L144 30.33l12.393-7.158v-2.51" class="icon-logo"/></svg>
