<svg style="position:absolute;width:0;height:0" xmlns="http://www.w3.org/2000/svg" overflow="hidden"><defs><symbol id="b" viewBox="0 0 32 32"><title>github</title><path class="icon-path" d="M27.779 14.169c.112-.708.186-1.528.186-2.423 0-3.839-1.826-5.181-2.199-5.815.522-2.907-.075-4.212-.373-4.66-1.044-.373-3.616.969-5.032 1.864-2.311-.671-7.157-.596-8.946.186C8.06.936 6.271 1.271 6.271 1.271s-1.155 2.05-.298 5.069c-1.118 1.417-1.938 2.386-1.938 5.032 0 .634.037 1.23.112 1.789 1.006 5.032 4.958 7.194 8.871 7.567-.596.447-1.305 1.305-1.379 2.274-.745.485-2.199.634-3.355.261-1.603-.522-2.236-3.69-4.66-3.243-.522.112-.41.447.037.745.745.485 1.417 1.081 1.976 2.348.41.969 1.267 2.721 3.988 2.721 1.081 0 1.826-.112 1.826-.112s.037 2.498.037 3.466c0 1.118-1.491 1.417-1.491 1.976 0 .224.485.224.895.224.783 0 2.423-.671 2.423-1.826v-4.547c0-1.193.634-1.566.634-1.566s.075 6.337-.149 7.157c-.261 1.006-.745.857-.745 1.305 0 .671 1.976.149 2.647-1.305.522-1.118.298-7.343.298-7.343h.522v4.138c-.037 1.342-.149 3.057.634 3.839.522.522 2.125 1.454 2.125.596 0-.485-1.118-.895-1.118-2.236v-6.15c.671 0 .82 2.013.82 2.013l.261 3.728s-.149 1.379 1.454 1.938c.559.186 1.826.261 1.864-.075.075-.336-1.491-.857-1.491-1.901 0-.634.037-1.006.037-3.802s-.373-3.839-1.677-4.66c3.728-.373 7.641-2.087 8.35-6.523z"/></symbol><symbol id="c" viewBox="0 0 32 32"><title>codepen</title><path class="icon-path" d="M17.05 1.259c-.882-.546-2.016-.546-2.855.042L1.431 9.95c-.672.462-1.092 1.218-1.092 2.016v9.321c0 .84.42 1.596 1.134 2.057l12.974 8.355c.84.546 1.931.546 2.813 0l13.226-8.482a2.43 2.43 0 0 0 1.134-2.057v-9.153c0-.84-.42-1.596-1.134-2.057L17.05 1.259zm9.909 10.119l-4.87 3.191-4.576-3.233-.042-6.382 9.489 6.424zM14.11 4.954v6.256l-4.702 3.191-4.702-3.065 9.405-6.382zM3.446 14.401l3.023 1.973-3.023 2.057V14.4zm10.749 13.352l-9.447-6.172 4.744-3.233 4.744 3.107c-.042 0-.042 6.298-.042 6.298zm-1.806-11.421l3.065-2.099 3.569 2.267-3.149 2.099-3.485-2.267zm5.164 11.421v-6.298l4.535-2.939 4.87 3.107-9.405 6.13zm10.749-9.196L25.069 16.5l3.233-2.099v4.157z"/></symbol><symbol id="d" viewBox="0 0 32 32"><title>mail</title><path class="icon-path" d="M19.714 17.12c-.04-.082-.12-.12-.24-.042L16.8 18.635c-.32.2-.678.2-1 0l-2.315-1.318a.255.255 0 0 0-.24 0L4.34 25.543c-.04.04-.04.08-.04.2 0 .04.04.08.08.16.2.04.32.08.4.08h22.722c.04 0 .12-.04.198-.08 0-.12 0-.2-.04-.24l-7.946-8.545zm-8.704-.76c.04-.04.04-.08.04-.16s-.04-.16-.08-.16l-6.91-3.95a.255.255 0 0 0-.24 0c-.04 0-.08.04-.08.16v10.42c0 .082.04.162.16.2h.08c.04 0 .08 0 .08-.038l6.95-6.47zm17.13-4.472h-.2L21.35 15.8c-.04 0-.08.04-.08.16-.04.04 0 .08.04.16l6.59 7.108c.04.04.12.08.16.08h.08c.08-.08.16-.16.16-.2v-11.02c0-.08-.04-.16-.16-.2zm-.64-5.871h-23c-.24 0-.398.08-.6.2a.822.822 0 0 0-.24.6V9.37c0 .12.042.2.16.2l12.14 6.908c.04 0 .12 0 .16-.04l11.7-6.828c.04-.04.12-.04.16-.04.04 0 .08 0 .158-.04.12 0 .2-.04.2-.2V6.857c0-.24-.08-.48-.24-.6-.2-.16-.4-.24-.598-.24z"/></symbol><symbol id="e" viewBox="0 0 32 32"><title>rss</title><path class="icon-path" d="M15.365 16.241c-3.712-3.392-10.349-4.188-10.349-4.188-.747 0-1.354.506-1.354 1.234v2.31c0 .724.607 1.231 1.354 1.235 0 0 4.265.111 6.828 2.423 3.382 3.054 3.288 7.288 3.288 7.288 0 .731.352 1.321 1.101 1.321h2.624c.747 0 .93-.59.93-1.321 0 0-.624-6.834-4.422-10.3zm-8.191 5.163c-1.853 0-3.357 1.465-3.357 3.268 0 1.809 1.504 3.27 3.357 3.27 1.856 0 3.359-1.461 3.359-3.27 0-1.803-1.503-3.268-3.359-3.268zm14.834-9.748C16.168 4.799 5.017 4.058 5.017 4.058c-.745 0-1.354.508-1.354 1.238v2.306c0 .729.609 1.234 1.354 1.234 0 0 7.969.252 12.464 5.422 6.16 6.169 5.693 12.337 5.693 12.337 0 .73.605 1.319 1.355 1.319h2.622c.749 0 1.186-.589 1.186-1.319 0 0-.555-9.702-6.329-14.939z"/></symbol><symbol id="f" viewBox="0 0 32 32"><title>twitter</title><path class="icon-path" d="M32.01 7.547a13.21 13.21 0 0 1-3.773 1.028 6.558 6.558 0 0 0 2.888-3.606 13.296 13.296 0 0 1-4.17 1.582 6.579 6.579 0 0 0-4.793-2.06c-3.627 0-6.568 2.918-6.568 6.519 0 .507.058 1.008.17 1.485A18.71 18.71 0 0 1 2.228 5.686a6.452 6.452 0 0 0-.889 3.274 6.5 6.5 0 0 0 2.922 5.425 6.569 6.569 0 0 1-2.974-.816l-.001.083c0 3.158 2.264 5.791 5.268 6.39a6.619 6.619 0 0 1-1.73.227 6.54 6.54 0 0 1-1.236-.116 6.563 6.563 0 0 0 6.135 4.525 13.244 13.244 0 0 1-8.156 2.791A13.07 13.07 0 0 1 0 27.376a18.684 18.684 0 0 0 10.067 2.929c12.079 0 18.684-9.93 18.684-18.541 0-.282-.006-.564-.018-.843a13.303 13.303 0 0 0 3.277-3.374z"/></symbol><symbol id="g" viewBox="0 0 32 32"><title>sina-weibo</title><path class="icon-path" d="M31.601 14.102v.005a1.227 1.227 0 0 1-2.334-.757h-.001c.64-1.981.234-4.241-1.259-5.898s-3.698-2.289-5.735-1.857a1.227 1.227 0 0 1-.512-2.4h.001a8.468 8.468 0 0 1 8.067 2.614 8.478 8.478 0 0 1 1.773 8.293zM23.11 9.519v-.001a1.054 1.054 0 1 1-.44-2.063 4.128 4.128 0 0 1 4.791 5.311 1.057 1.057 0 0 1-1.328.681 1.057 1.057 0 0 1-.679-1.33h-.002A2.019 2.019 0 0 0 23.11 9.52zm.423 1.975c.554.792.501 1.903-.01 3.19-.236.592.073.684.524.82 1.836.569 3.881 1.948 3.881 4.375 0 4.019-5.792 9.081-14.499 9.081-6.641 0-13.431-3.221-13.431-8.519 0-2.769 1.754-5.972 4.773-8.994 4.033-4.034 8.735-5.872 10.504-4.101.78.78.855 2.131.354 3.744-.261.812.762.362.762.364 3.26-1.366 6.103-1.446 7.143.04zm-1.113 8.312c-.343-3.48-4.918-5.878-10.219-5.354-5.299.525-9.318 3.772-8.974 7.253s4.919 5.878 10.219 5.355c5.301-.524 9.317-3.772 8.974-7.255zm-12.401 5.759c-2.548-.823-3.626-3.34-2.511-5.608 1.096-2.224 3.945-3.481 6.467-2.825 2.61.675 3.942 3.139 2.876 5.531-1.082 2.448-4.193 3.753-6.832 2.902zm1.439-4.766c-.821-.344-1.881.009-2.388.804-.513.798-.272 1.749.543 2.12.827.378 1.924.019 2.437-.799.503-.827.238-1.771-.592-2.125zm2.023-.839c-.315-.125-.708.026-.893.336-.179.311-.08.666.235.796.321.132.731-.02.916-.337.177-.319.062-.678-.258-.795z"/></symbol><symbol id="h" viewBox="0 0 32 32"><title>zhihu</title><path class="icon-path" d="M26.182 27.151L21.333 32v-4.849h-2.909V4.848l12.596.164.01-.164v22.303h-4.849zm1.939-19.393h-6.788V25.18l.97.033v1.939l3.736-1.99 2.082.05V7.757zm-16.485 9.697c-1.01.01-1.043-.212-1.089.878-.029.693-.243 1.378-.374 2.066l-.859 2.763c-.696 1.816-1.484 3.581-2.768 5.092-1.274 1.496-3.009 1.705-4.803 1.768-.279.01-.666.054-.766-.312-.093-.344.245-.524.465-.701 1.89-1.528 3.22-2.641 4.376-4.765.937-1.72 1.633-2.913 1.939-4.849.131-.829-.18-1.962-.97-1.939-1.466.042-4.351-.015-5.818 0-.047-.005.13-.469.282-.954.314-1.057 1.049-1.92 1.873-1.905 1.279.023 1.416-.091 2.694-.05.81.026 1.948-.128 1.939-.97-.019-1.901-.053-3.919 0-5.818.016-.545.382-.769-.134-.812-1.677-.137-1.841-.06-2.635 1.474-.648 1.25-1.984 1.959-3.337 2.294-.73.181-.655.156-.562-.064C2.16 8.137 3.322 4.93 4.337 2.404 4.754 1.366 6.519.609 7.54.026c0 0 .239-.173.005.553-.251.782-.585 2.202-.863 2.973-.292.806-.146 1.223.677 1.216 2.446-.02 5.026 0 7.473 0 .577 0 1.068-.097 1.429.514 1.176 1.984.91 1.649-.235 1.667-.978.016-2.443-.127-3.42-.16-.74-.025-1.785.378-1.819 1.161-.091 2.122-.149 3.687-.12 5.627.011.689 1.451.971 1.939.97 1.279-.002 1.444.028 2.723.05 1.044.017 1.761.864 2.126 1.889.026.324.261.881 0 .97a417.893 417.893 0 0 0-5.818 0zm3.879 7.757c.381.565.431 1.574 0 2.909-.085.266-.604.133-1.166-.507-1.357-1.548-2.601-3.188-3.913-4.773-.367-.443-.587-.694-.754-.746l1.954-1.732c.894 1.056 2.987 3.791 3.879 4.848z"/></symbol><symbol id="i" viewBox="0 0 32 32"><title>bilibili</title><path class="icon-path" d="M31.364 28.407c-.273.001-.55.025-.821-.004-.992-.108-1.716 1.02-2.06 2.208-.31 1.07-1.486 1.617-2.545 1.507-1.223-.126-2.032-.825-2.344-1.93-.188-.668-.754-1.186-1.378-1.182-4.303.025-8.13.013-12.434 0-.495-.001-1.024.473-1.169 1.057-.31 1.252-1.374 2.046-2.552 2.066-1.22.021-2.279-.753-2.635-2.053-.149-.544-.401-1.708-.921-1.679-.669.037-1.343.019-2.014.007-.734-.013-1.058-.308-1.058-1.004.005-7.08.016-14.159.034-21.239.002-.732.306-.978 1.149-.979 3.457-.004 6.915-.002 10.373-.002h.723c.022-.059.045-.119.066-.179-.803-.422-1.606-.843-2.408-1.266-1.331-.703-2.665-1.403-3.994-2.108-.539-.286-.763-.722-.458-1.263.308-.547.816-.58 1.348-.3 3.122 1.646 6.245 3.291 9.355 4.955.797.427 2.231.171 2.744-.55 1.591-2.242 3.18-4.484 4.77-6.728.056-.079.11-.16.168-.238.454-.609.969-.774 1.437-.414.542.415.449.909.1 1.403-.646.915-1.291 1.829-1.935 2.744l-2.777 3.947h.926c3.434 0 6.867-.001 10.299.001 1.049.001 1.21.16 1.211 1.179.01 6.959.02 13.917.026 20.876.001.995-.182 1.163-1.229 1.17zm-5.16 2.082c.549-.036.81-1.491.977-2.041h-2.076c.204.605.487 2.083 1.099 2.041zm-20.236.001c.608.037.895-1.433 1.076-2.037H4.999c.139.569.425 2.004.969 2.037zM30.506 7.247H1.494v19.687h29.012V7.247zm-26.94 4.022c.002-.959.465-1.897 1.431-1.898 7.37-.001 14.154-.054 21.524-.052.98 0 1.91 1.001 1.913 1.95.013 4.578-.007 8.101 0 12.678.002.978-.885 1.949-1.913 1.95-3.674.002-6.848 0-10.521 0s-6.847.002-10.521 0c-1.069-.001-1.914-.896-1.913-1.95.005-4.555-.008-8.123 0-12.678zm23.103 12.537c0-4.328-.148-8.3-.148-12.536H5.479c0 4.303-.025 8.272-.025 12.536h21.215zm-15.22-10.013c.06-.027.135-.022.386-.058.146.143.515.34.554.586.045.288-.11.79-.333.903-1.362.691-2.76 1.314-4.162 1.924-.427.186-.896.046-1.005-.41-.071-.298.057-.865.271-.973 1.403-.71 2.853-1.328 4.289-1.973zm.428 4.619c.265-.009.608.357.8.637.153.223.089.579.197.848.204.513.588 1.001 1.156.881.42-.088.803-.508 1.118-.856.155-.172.129-.512.167-.778.071-.501.367-.81.862-.798.453.011.747.285.805.775.037.31.046.694.231.9.296.329.723.727 1.105.74.346.011.767-.407 1.039-.73.181-.215.171-.594.228-.903.092-.494.378-.795.89-.755.509.039.776.367.756.878-.049 1.296-.564 2.35-1.778 2.928-1.131.54-2.188.308-3.115-.522-.05-.045-.11-.077-.172-.119-.282.196-.543.423-.842.579-.979.511-1.959.468-2.863-.16-.997-.694-1.441-1.706-1.352-2.882.019-.255.491-.654.767-.663zm7.228-4.679c.24-.421.667-.536 1.066-.309a191.22 191.22 0 0 1 4.707 2.783c.186.113.273.384.339.482.018.77-.62 1.189-1.206.858a169.7 169.7 0 0 1-4.649-2.748c-.406-.247-.492-.656-.257-1.066z"/></symbol><symbol id="j" viewBox="0 0 32 32"><title>douban</title><path class="icon-path" d="M9.955 20.173c1.256 1.714 2.389 3.87 3.382 6.288h6.097c1.186-1.866 2.102-4.024 2.997-6.288l3.441 1.156c-.9 1.909-1.994 3.681-3.023 5.132h8.537l.043 3.038H.572v-2.893l9.351-.146a40.031 40.031 0 0 0-3.132-5.132l3.165-1.156zM1.536 2.5h28.929v2.893H1.536V2.5zm3.02 5.672l23.016.114v11.571H4.429l.127-11.685zm20.123 8.792l.122-5.942-17.479.156v5.786h17.357z"/></symbol><symbol id="k" viewBox="0 0 32 32"><title>netease-music</title><path class="icon-path" d="M21.439-.014c.33.053.664.09.992.161a7.34 7.34 0 0 1 3.085 1.475c.596.478.839 1.102.666 1.841-.155.664-.589 1.112-1.259 1.304-.634.181-1.207.043-1.727-.364-.66-.518-1.392-.875-2.269-.799-.744.065-1.454.83-1.39 1.513.028.306.14.604.219.905.14.531.285 1.061.427 1.592.024.091.048.164.179.171 1.998.106 3.799.743 5.403 1.922 1.577 1.16 2.869 2.552 3.735 4.3a10.654 10.654 0 0 1 1.085 4.061c.125 1.891-.102 3.74-.854 5.486-1.749 4.058-4.824 6.676-9.147 7.879a15.481 15.481 0 0 1-5.037.542c-3.547-.198-6.62-1.509-9.208-3.88-2.554-2.338-4.147-5.213-4.7-8.588-.754-4.591.402-8.707 3.46-12.277 1.679-1.961 3.775-3.374 6.219-4.286.842-.315 1.764-.022 2.226.697.472.735.361 1.681-.293 2.265a2.224 2.224 0 0 1-.651.39c-3.726 1.488-6.187 4.109-7.165 7.932-.949 3.708-.11 7.103 2.312 10.094 1.518 1.875 3.48 3.134 5.853 3.752 1.534.4 3.084.425 4.647.189 1.612-.244 3.118-.762 4.469-1.667 1.858-1.245 3.182-2.904 3.844-5.016.571-1.823.591-3.664-.115-5.473-.568-1.456-1.574-2.576-2.834-3.5-.673-.494-1.396-.879-2.22-1.068-.038-.008-.076-.013-.144-.024.113.422.217.823.326 1.223.262.964.529 1.927.786 2.892.558 2.099.018 3.937-1.459 5.503-1.367 1.449-3.106 2.08-5.1 1.891-2.221-.211-3.807-1.39-4.841-3.3-.542-1-.776-2.077-.819-3.205-.069-1.796.36-3.453 1.411-4.936 1.129-1.592 2.693-2.613 4.541-3.247.145-.05.293-.095.463-.151-.1-.37-.203-.73-.293-1.094-.123-.501-.281-.999-.344-1.507-.183-1.504.289-2.811 1.351-3.907.87-.896 1.924-1.464 3.187-1.635l.417-.059h.568zm-3.944 11.672c-1.095.341-2.04.86-2.748 1.724-.948 1.158-1.137 2.488-.835 3.9.157.734.524 1.362 1.168 1.8.805.548 1.901.524 2.743-.045.86-.584 1.243-1.524.992-2.488-.275-1.056-.568-2.108-.853-3.162l-.467-1.73z"/></symbol><symbol id="l" viewBox="0 0 32 32"><title>v2ex</title><path class="icon-path" d="M19.549 2.508H2.171c-.639 0-1.158.508-1.158 1.135V11.5H17.31c.339 0 .663.136.895.378l3.782 3.919a.224.224 0 0 1 .001.312l-3.782 3.957c-.233.244-.489.444-.83.444H1.013v7.866c0 .627.519 1.136 1.158 1.136h17.374c.383 0 .75-.149 1.021-.415l11.738-11.518a2.259 2.259 0 0 0-.007-3.246L20.565 2.918a1.455 1.455 0 0 0-1.016-.41z"/></symbol><symbol id="m" viewBox="0 0 32 32"><title>fanfou</title><path class="icon-path" d="M6.287 1.886c-.06.1-.423 1.13-.806 2.3-.74 2.217-2.27 5.463-3.34 7.036l-.62.907.85.76c.47.42.93.72 1.05.68.14-.06.77-1.05 1.39-2.22l1.17-2.14 2.46-.06c1.35-.04 2.52-.04 2.6 0 .08.02-.08.67-.34 1.43-.28.76-.5 1.47-.5 1.59 0 .26 1.86.9 2.04.7.16-.18 1.33-4.07 1.52-5.06l.14-.65h-3.4c-1.83 0-3.34-.08-3.34-.16 0-.35 1.05-2.73 1.52-3.47.567-.89.567-.87-1.03-1.41-1.33-.47-1.25-.45-1.35-.27zM29.1 27.196c-1.454-.664-3.63-2.217-4.094-2.923-.283-.442-.263-.563.383-1.975.38-.827.96-2.36 1.28-3.428.74-2.32 1.93-7.944 1.77-8.348-.08-.26-.95-.302-5.47-.302h-5.34V6.423l2.69-.223c1.45-.14 3.42-.32 4.37-.42.94-.12 2.32-.2 3.08-.2.74 0 1.35-.06 1.35-.14 0-.06-.35-.66-.75-1.31-.83-1.25-.99-1.31-2.48-.97-1.39.33-7.24 1.01-8.63 1.01-.79 0-1.53.04-1.7.1-.22.08-.24 1.19-.18 5.91.12 10.18-.61 13.51-3.83 17.3-.65.77-1.19 1.457-1.19 1.537 0 .2 1.91 1.17 2.26 1.17.26-.02 1.31-1.533 2.44-3.51.64-1.13 1.47-3.47 1.75-5 .37-1.914.83-6.29.81-7.62-.04-1.875-.04-1.855.45-1.775.4.06.48.323.99 3.306.6 3.63.88 4.76 1.77 6.896l.61 1.474-1.29 1.29c-.73.705-1.98 1.653-2.83 2.117-.83.46-1.51.886-1.51.925 0 .062.42.546.94 1.09l.95.97 1.21-.91c.68-.503 1.9-1.57 2.68-2.356l1.47-1.414 1.25 1.23c.702.665 1.94 1.713 2.76 2.298l1.49 1.068.33-.48c.18-.282.56-.79.89-1.13.3-.342.54-.684.54-.77 0-.06-.567-.38-1.25-.682zm-5.957-5.692c-.604 0-1.955-4.74-2.217-7.763l-.12-1.51h5.16l-.14 1.01c-.363 2.77-2.158 8.27-2.683 8.27z"/><path class="icon-path" d="M5.44 13.157c-.142.04-.18 1.896-.12 5.222.06 5.48 0 6.04-1.01 7.31l-.382.5.847.92c.484.5.968.93 1.09.93.14 0 .947-.83 1.794-1.82.86-1.01 2.15-2.42 2.88-3.17l1.31-1.33-.59-.93c-.33-.5-.67-.93-.79-.93-.1.02-.79.76-1.52 1.67l-1.3 1.67-.1-5.04-.1-5.04-.91-.04c-.51-.02-1.01 0-1.11.06z"/></symbol><symbol id="a"><circle cx="50%" cy="50%" r="50%"/></symbol></defs></svg>