<svg xmlns="http://www.w3.org/2000/svg" style="position:absolute;width:0;height:0" xmlns:xlink="http://www.w3.org/1999/xlink" overflow="hidden"><defs><symbol id="icon-cc-license" viewBox="0 0 110 32"><path d="M16.144.95c-4.09 0-7.695 1.526-10.482 4.37C2.8 8.25 1.242 12.04 1.242 16c0 3.998 1.517 7.708 4.38 10.594 2.87 2.89 6.59 4.455 10.522 4.455 3.93 0 7.738-1.57 10.684-4.5 2.782-2.76 4.255-6.43 4.255-10.55 0-4.09-1.472-7.8-4.296-10.64C23.923 2.47 20.237.95 16.14.95zm.04 2.72c3.358 0 6.343 1.28 8.68 3.63 2.29 2.31 3.52 5.36 3.52 8.7 0 3.378-1.19 6.347-3.48 8.616-2.417 2.39-5.528 3.67-8.72 3.67-3.23 0-6.263-1.28-8.594-3.63C5.255 22.31 3.945 19.216 3.945 16c0-3.258 1.312-6.348 3.645-8.74 2.292-2.353 5.24-3.592 8.598-3.592zm-.193 9.83c-.84-1.55-2.28-2.17-3.95-2.17-2.43 0-4.37 1.737-4.37 4.67 0 2.986 1.82 4.668 4.46 4.668 1.69 0 3.13-.932 3.92-2.35l-1.85-.95c-.41 1.004-1.04 1.302-1.83 1.302-1.37 0-2-1.15-2-2.67 0-1.514.53-2.664 2.01-2.664.4 0 1.19.22 1.65 1.22L16 13.503zm8.62 0c-.84-1.55-2.28-2.17-3.95-2.17-2.43 0-4.37 1.737-4.37 4.67 0 2.986 1.82 4.668 4.46 4.668 1.69 0 3.13-.932 3.93-2.35l-1.85-.95c-.41 1.004-1.04 1.302-1.84 1.302-1.37 0-2-1.15-2-2.67 0-1.514.53-2.664 2-2.664.4 0 1.19.22 1.66 1.22l1.99-1.053zm34.41-1.223c0-.536-.43-.97-.96-.97h-6.11c-.53 0-.96.434-.96.97v6.15h1.71v7.278h4.63v-7.278h1.71v-6.15zm-1.92-3.88c0 1.16-.93 2.102-2.08 2.102s-2.09-.95-2.09-2.11.94-2.11 2.09-2.11 2.08.95 2.08 2.11zM54.99.973c-4.136 0-7.63 1.45-10.5 4.357-2.94 3.003-4.41 6.562-4.41 10.67s1.474 7.64 4.41 10.594c2.942 2.955 6.437 4.434 10.502 4.434 4.11 0 7.67-1.493 10.68-4.476 2.847-2.833 4.263-6.347 4.263-10.558 0-4.208-1.44-7.764-4.33-10.675C62.718 2.41 59.183.96 54.997.96zm.032 2.703c3.39 0 6.263 1.202 8.63 3.61 2.39 2.38 3.583 5.28 3.583 8.714 0 3.456-1.164 6.326-3.505 8.602-2.464 2.457-5.363 3.683-8.702 3.683-3.338 0-6.213-1.212-8.628-3.643-2.414-2.43-3.625-5.31-3.625-8.642S44 9.765 46.44 7.284c2.34-2.406 5.208-3.61 8.593-3.61zm38.8-2.703c4.187 0 7.72 1.45 10.61 4.357 2.89 2.907 4.33 6.463 4.33 10.67 0 4.21-1.42 7.726-4.26 10.56-3.01 2.978-6.57 4.47-10.68 4.47-4.05 0-7.56-1.474-10.49-4.433-2.94-2.95-4.403-6.488-4.403-10.593 0-4.105 1.46-7.664 4.4-10.667C86.19 2.43 89.69.977 93.82.977zM82.28 11.965c-.442 1.267-.664 2.61-.664 4.035 0 3.33 1.206 6.213 3.62 8.64 2.417 2.433 5.29 3.645 8.627 3.645 3.34 0 6.24-1.226 8.71-3.683.83-.8 1.5-1.675 2.04-2.63l-5.622-2.52c-.38 1.902-2.06 3.19-4.1 3.347v2.31h-1.72V22.8c-1.67-.026-3.29-.716-4.52-1.803l2.06-2.09c.99.934 1.98 1.36 3.33 1.36.88 0 1.85-.35 1.85-1.5 0-.402-.15-.69-.4-.9l-1.42-.638-1.77-.8-2.36-1.06-7.62-3.42zm11.583-8.29c-3.38 0-6.24 1.203-8.58 3.61-.64.643-1.19 1.324-1.66 2.03l5.707 2.554c.514-1.6 2.02-2.57 3.843-2.67V6.88h1.716v2.312c1.17.057 2.47.383 3.74 1.378l-1.96 2.03c-.73-.514-1.64-.88-2.55-.88-.74 0-1.79.23-1.79 1.17 0 .142.05.267.13.38l1.91.855 1.29.58 2.39 1.073 7.64 3.43c.25-1.01.38-2.08.38-3.218 0-3.43-1.2-6.337-3.59-8.717-2.37-2.404-5.24-3.606-8.63-3.606z" class="icon-path"/></symbol><symbol id="icon-heart" viewBox="0 0 32 32"><path d="M23.6 2c-3.363 0-6.258 2.736-7.6 5.594C14.66 4.736 11.765 2 8.4 2 3.763 2 0 5.764 0 10.4c0 9.434 9.516 11.907 16 21.233 6.13-9.268 16-12.1 16-21.232C32 5.77 28.237 2 23.6 2z" class="icon-path"/></symbol><symbol id="icon-chevron-down" viewBox="0 0 32 32"><path d="M.045 8.443c0-.215.082-.43.246-.594.33-.33.86-.33 1.19 0L16 22.37 30.52 7.85c.33-.33.86-.33 1.19 0s.327.86 0 1.186L16.593 24.152c-.328.326-.86.326-1.188 0L.29 9.036c-.163-.163-.245-.378-.245-.593z" class="icon-path"/></symbol><symbol id="icon-quote" viewBox="0 0 32 32"><path d="M16 1.204c8.15 0 14.796 6.646 14.796 14.796S24.15 30.796 16 30.796 1.204 24.15 1.204 16 7.85 1.204 16 1.204m0-1.087C7.223.117.117 7.223.117 16S7.223 31.883 16 31.883 31.883 24.777 31.883 16 24.777.117 16 .117z"/><path d="M16 1.956C8.226 1.956 1.956 8.226 1.956 16S8.226 30.044 16 30.044 30.044 23.774 30.044 16 23.774 1.956 16 1.956zm-3.887 13.92c.836 0 1.505.207 2.006.626.5.418.75 1.044.75 1.84 0 .584-.21 1.127-.67 1.63-.46.5-1.05.752-1.8.752-1.17 0-2.05-.377-2.55-1.17s-.75-1.798-.75-3.052c0-.878.21-1.714.58-2.424.37-.752.83-1.38 1.42-1.965.54-.585 1.17-1.086 1.79-1.504.62-.42 1.17-.76 1.59-1.01l.75 1.21c-.63.37-1.17.67-1.55.96-.42.25-.8.63-1.21 1.04-.38.42-.67.83-.88 1.29-.21.46-.34 1.04-.42 1.75h.92zm7.65 0c.835 0 1.504.207 2.005.626.502.418.752 1.044.752 1.84 0 .584-.208 1.127-.668 1.63-.418.5-1.045.752-1.798.752-1.17 0-2.048-.377-2.55-1.17-.5-.795-.752-1.798-.752-3.052 0-.878.21-1.714.586-2.424.376-.752.836-1.38 1.42-1.965.544-.585 1.17-1.086 1.8-1.504.625-.42 1.17-.76 1.587-1.01l.752 1.21c-.627.37-1.17.67-1.547.96-.417.25-.793.63-1.212 1.04-.418.42-.71.87-.877 1.29-.16.41-.33 1-.41 1.75h.92z"/></symbol><symbol id="icon-github" viewBox="0 0 32 32"><path d="M27.78 14.17c.11-.71.185-1.53.185-2.424 0-3.84-1.826-5.18-2.2-5.815.523-2.9-.074-4.21-.372-4.66-1.044-.37-3.616.97-5.032 1.87-2.31-.67-7.15-.59-8.94.19C8.06.94 6.27 1.27 6.27 1.27s-1.154 2.05-.297 5.07c-1.118 1.417-1.938 2.386-1.938 5.032 0 .634.037 1.23.112 1.79 1.006 5.03 4.958 7.193 8.87 7.566-.595.447-1.304 1.305-1.378 2.274-.75.485-2.2.634-3.36.26-1.61-.52-2.24-3.69-4.66-3.242-.52.112-.41.447.03.745.74.485 1.41 1.08 1.97 2.348.41.97 1.26 2.72 3.99 2.72 1.08 0 1.82-.11 1.82-.11s.04 2.497.04 3.465c0 1.118-1.49 1.417-1.49 1.976 0 .224.48.224.89.224.78 0 2.42-.67 2.42-1.826v-4.547c0-1.193.63-1.566.63-1.566s.07 6.33-.15 7.15c-.26 1-.75.85-.75 1.3 0 .67 1.97.15 2.64-1.31.52-1.12.29-7.35.29-7.35h.52v4.14c-.04 1.34-.15 3.05.63 3.84.52.52 2.122 1.45 2.122.59 0-.49-1.12-.9-1.12-2.24v-6.15c.67 0 .82 2.01.82 2.01l.26 3.72s-.148 1.38 1.455 1.94c.56.19 1.826.26 1.864-.07.074-.34-1.49-.86-1.49-1.9 0-.64.035-1.01.035-3.81s-.377-3.84-1.68-4.66c3.73-.37 7.64-2.09 8.35-6.52z" class="icon-path"/></symbol><symbol id="icon-codepen" viewBox="0 0 32 32"><path d="M17.05 1.26c-.882-.547-2.016-.547-2.855.04L1.43 9.95c-.67.462-1.09 1.218-1.09 2.016v9.32c0 .84.42 1.597 1.133 2.058L14.447 31.7c.84.545 1.93.545 2.813 0l13.226-8.483C31.2 22.755 31.62 22 31.62 21.16v-9.153c0-.84-.42-1.596-1.134-2.057L17.05 1.26zm9.91 10.118l-4.87 3.19-4.577-3.232-.042-6.382 9.49 6.424zM14.11 4.954v6.256L9.408 14.4l-4.702-3.064 9.405-6.382zM3.446 14.4l3.023 1.974-3.03 2.056V14.4zm10.75 13.353l-9.45-6.173 4.745-3.232 4.75 3.107c-.04 0-.04 6.298-.04 6.298zm-1.807-11.42l3.06-2.1 3.57 2.267-3.15 2.1-3.49-2.268zm5.16 11.42v-6.298l4.53-2.94 4.87 3.108-9.41 6.13zm10.75-9.196L25.07 16.5l3.232-2.1v4.158z" class="icon-path"/></symbol><symbol id="icon-mail" viewBox="0 0 32 32"><path d="M19.714 17.12c-.04-.082-.12-.12-.24-.042L16.8 18.635c-.32.2-.678.2-1 0l-2.315-1.318c-.08-.04-.16-.04-.24 0L4.34 25.543c-.04.04-.04.08-.04.2 0 .04.04.08.08.16.2.04.32.08.4.08h22.722c.04 0 .12-.04.198-.08 0-.12 0-.2-.04-.24l-7.946-8.545zm-8.704-.76c.04-.04.04-.08.04-.16s-.04-.16-.08-.16l-6.91-3.95c-.08-.04-.16-.04-.24 0-.04 0-.08.04-.08.16v10.42c0 .082.04.162.16.2h.08c.04 0 .08 0 .08-.038l6.95-6.47zm17.13-4.472h-.2L21.35 15.8c-.04 0-.08.04-.08.16-.04.04 0 .08.04.16l6.59 7.108c.04.04.12.08.16.08h.08c.08-.08.16-.16.16-.2v-11.02c0-.08-.04-.16-.16-.2zm-.64-5.87h-23c-.24 0-.398.08-.6.2-.158.16-.24.36-.24.6V9.37c0 .12.042.2.16.2l12.14 6.908c.04 0 .12 0 .16-.04l11.7-6.828c.04-.04.12-.04.16-.04.04 0 .08 0 .158-.04.12 0 .2-.04.2-.2V6.857c0-.24-.08-.48-.24-.6-.2-.16-.4-.24-.598-.24z" class="icon-path"/></symbol><symbol id="icon-rss" viewBox="0 0 32 32"><path d="M15.365 16.24c-3.712-3.39-10.35-4.187-10.35-4.187-.746 0-1.353.506-1.353 1.234v2.31c0 .724.607 1.23 1.354 1.235 0 0 4.265.11 6.828 2.423 3.382 3.054 3.288 7.288 3.288 7.288 0 .73.352 1.32 1.1 1.32h2.625c.747 0 .93-.59.93-1.32 0 0-.624-6.834-4.422-10.3zm-8.19 5.164c-1.854 0-3.358 1.465-3.358 3.268 0 1.81 1.504 3.27 3.357 3.27 1.856 0 3.36-1.46 3.36-3.27 0-1.803-1.504-3.268-3.36-3.268zm14.833-9.748C16.168 4.8 5.018 4.058 5.018 4.058c-.746 0-1.355.508-1.355 1.238v2.306c0 .73.61 1.234 1.354 1.234 0 0 7.97.252 12.464 5.422 6.16 6.17 5.7 12.337 5.7 12.337 0 .73.61 1.32 1.36 1.32h2.62c.75 0 1.19-.59 1.19-1.32 0 0-.55-9.702-6.33-14.94z" class="icon-path"/></symbol><symbol id="icon-twitter" viewBox="0 0 32 32"><path d="M32.01 7.547c-1.178.52-2.444.87-3.773 1.028 1.356-.807 2.397-2.086 2.888-3.606-1.268.74-2.675 1.28-4.17 1.58-1.198-1.27-2.905-2.06-4.793-2.06-3.627 0-6.568 2.92-6.568 6.52 0 .5.058 1 .17 1.48-5.457-.28-10.296-2.87-13.536-6.81-.564.96-.89 2.08-.89 3.27 0 2.26 1.16 4.25 2.923 5.42-1.07-.04-2.08-.33-2.97-.82v.08c0 3.15 2.27 5.79 5.27 6.39-.55.15-1.13.22-1.73.22-.42 0-.83-.04-1.23-.12.84 2.59 3.26 4.47 6.14 4.52-2.25 1.75-5.08 2.79-8.15 2.79-.53 0-1.05-.03-1.56-.09 2.91 1.85 6.36 2.93 10.07 2.93 12.08 0 18.69-9.93 18.69-18.54 0-.28 0-.57-.02-.85 1.29-.92 2.4-2.07 3.28-3.37z" class="icon-path"/></symbol><symbol id="icon-weibo" viewBox="0 0 32 32"><path d="M31.6 14.102v.005c-.208.643-.9.996-1.543.788-.645-.208-.998-.9-.79-1.545.64-1.98.233-4.24-1.26-5.898s-3.698-2.29-5.735-1.857c-.663.14-1.314-.282-1.455-.944-.142-.66.28-1.31.943-1.45 2.864-.61 5.965.28 8.068 2.62 2.103 2.33 2.67 5.51 1.773 8.3zM23.11 9.52v-.002c-.568.124-1.13-.24-1.25-.81-.123-.57.24-1.132.81-1.253 1.395-.298 2.906.134 3.93 1.27s1.3 2.683.86 4.04c-.178.556-.773.86-1.327.682-.555-.18-.858-.776-.68-1.33.214-.664.08-1.42-.42-1.976s-1.24-.76-1.923-.62zm.423 1.974c.554.792.5 1.903-.01 3.19-.236.592.073.684.524.82 1.836.57 3.88 1.948 3.88 4.375 0 4.01-5.79 9.08-14.498 9.08-6.65 0-13.44-3.22-13.44-8.52 0-2.77 1.75-5.97 4.77-9 4.04-4.03 8.74-5.87 10.51-4.1.78.78.85 2.13.35 3.74-.27.81.76.36.76.36 3.26-1.37 6.1-1.45 7.14.04zm-1.113 8.312c-.343-3.48-4.918-5.878-10.22-5.354-5.298.525-9.317 3.772-8.973 7.253s4.92 5.878 10.22 5.355c5.3-.524 9.316-3.772 8.973-7.255zm-12.4 5.76c-2.55-.824-3.627-3.34-2.512-5.61 1.096-2.223 3.945-3.48 6.467-2.824 2.61.675 3.942 3.14 2.876 5.53-1.08 2.45-4.19 3.754-6.83 2.903zm1.438-4.767c-.82-.35-1.88 0-2.388.8-.513.8-.272 1.75.543 2.12.827.38 1.924.02 2.437-.8.503-.83.238-1.77-.592-2.13zm2.023-.84c-.31-.13-.7.02-.89.33-.18.31-.08.66.24.79s.73-.02.92-.34c.18-.32.06-.68-.26-.8z" class="icon-path"/></symbol><symbol id="icon-zhihu" viewBox="0 0 32 32"><path d="M26.182 27.15L21.332 32v-4.85h-2.908V4.85l12.596.164.01-.164v22.3h-4.85zm1.94-19.392h-6.79V25.18l.97.033v1.94l3.737-1.99 2.08.05V7.756zm-16.486 9.697c-1.01.01-1.043-.212-1.09.878-.028.693-.242 1.378-.373 2.066l-.86 2.76c-.695 1.81-1.483 3.58-2.767 5.09-1.274 1.49-3.01 1.7-4.803 1.77-.28.01-.666.05-.766-.31-.093-.35.245-.53.465-.7 1.89-1.53 3.22-2.65 4.376-4.77.937-1.72 1.633-2.92 1.94-4.85.13-.83-.18-1.96-.97-1.94-1.467.04-4.352-.02-5.82 0-.046-.01.13-.47.283-.96.32-1.06 1.05-1.92 1.88-1.91 1.28.02 1.42-.09 2.7-.05.81.02 1.95-.13 1.94-.97-.02-1.9-.05-3.92 0-5.82.02-.55.38-.77-.13-.82C5.96 6.8 5.8 6.87 5 8.41c-.65 1.25-1.987 1.96-3.34 2.293-.73.18-.654.156-.56-.064 1.07-2.51 2.23-5.72 3.245-8.25.413-1.03 2.18-1.79 3.2-2.37 0 0 .24-.17.005.55-.25.78-.586 2.2-.864 2.97-.292.8-.146 1.22.677 1.21 2.44-.02 5.02 0 7.47 0 .57 0 1.07-.1 1.43.51 1.17 1.98.91 1.65-.24 1.66-.98.02-2.445-.13-3.42-.16-.74-.02-1.787.38-1.82 1.16-.09 2.12-.15 3.69-.12 5.63.01.69 1.45.97 1.94.97 1.28 0 1.442.03 2.72.05 1.044.02 1.76.86 2.126 1.89.02.32.26.88 0 .97-1.34-.02-4.5-.02-5.82 0zm3.88 7.757c.38.565.43 1.574 0 2.91-.086.265-.605.132-1.167-.508-1.36-1.548-2.61-3.188-3.92-4.773-.37-.44-.59-.69-.76-.74l1.95-1.73c.89 1.06 2.98 3.79 3.88 4.85z" class="icon-path"/></symbol><symbol id="icon-bilibili" viewBox="0 0 32 32"><path d="M31.364 28.407c-.273 0-.55.025-.82-.004-.993-.108-1.717 1.02-2.06 2.208-.31 1.07-1.487 1.62-2.546 1.51-1.223-.12-2.032-.82-2.344-1.93-.188-.67-.754-1.18-1.378-1.18-4.303.03-8.13.02-12.434 0-.495 0-1.024.48-1.17 1.06-.31 1.25-1.373 2.05-2.55 2.07-1.22.02-2.28-.75-2.636-2.05-.15-.54-.4-1.71-.92-1.68-.67.04-1.344.02-2.015.01-.73-.01-1.05-.3-1.05-1 .01-7.08.02-14.16.04-21.24 0-.73.31-.97 1.15-.97C4.09 5.2 7.55 5.2 11 5.2h.73l.06-.19c-.803-.42-1.606-.84-2.41-1.265-1.33-.705-2.665-1.405-3.995-2.11C4.84 1.345 4.62.91 4.925.37c.3-.548.81-.58 1.34-.3 3.12 1.644 6.243 3.29 9.353 4.954.797.43 2.23.17 2.744-.55l4.77-6.73c.05-.08.11-.16.17-.24.45-.61.97-.77 1.43-.41.54.41.45.9.1 1.4L22.9 1.23l-2.775 3.95H31.35c1.048.002 1.21.16 1.21 1.18.01 6.96.02 13.917.026 20.876 0 .994-.183 1.162-1.23 1.17zm-5.16 2.082c.55-.04.81-1.5.977-2.05h-2.07c.21.6.49 2.08 1.1 2.04zm-20.236 0c.608.03.895-1.44 1.076-2.04H5c.138.57.424 2 .968 2.03zM30.506 7.24H1.494v19.69h29.012V7.248zm-26.94 4.03c.002-.96.465-1.898 1.43-1.9 7.37 0 14.155-.053 21.525-.05.98 0 1.91 1 1.92 1.95.02 4.577 0 8.1 0 12.677 0 .978-.88 1.95-1.91 1.95-3.67.002-6.84 0-10.52 0s-6.84.002-10.52 0c-1.07 0-1.91-.896-1.91-1.95.01-4.555-.01-8.123 0-12.678zM26.67 23.805c0-4.328-.15-8.3-.15-12.536H5.48c0 4.3-.026 8.27-.026 12.53H26.67zM11.45 13.793c.06-.027.134-.022.385-.058.146.143.515.34.554.586.04.29-.11.79-.34.91-1.36.69-2.76 1.32-4.16 1.93-.43.19-.9.05-1.01-.41-.07-.3.05-.86.27-.97 1.4-.71 2.85-1.33 4.29-1.97zm.427 4.62c.265-.01.608.356.8.636.153.22.09.57.197.84.204.51.588 1 1.156.88.42-.09.803-.51 1.118-.86.155-.17.13-.51.167-.78.07-.5.367-.81.862-.8.453.01.747.28.805.77.037.31.046.69.23.9.297.33.724.72 1.106.74.346.01.767-.41 1.04-.73.18-.22.17-.6.227-.91.092-.5.378-.8.89-.76.51.04.776.36.756.87-.04 1.3-.56 2.35-1.77 2.93-1.13.54-2.19.31-3.11-.52-.05-.05-.11-.08-.17-.12-.28.19-.54.42-.84.58-.98.51-1.96.46-2.86-.16-.99-.7-1.44-1.71-1.35-2.89.02-.26.49-.66.77-.67zm7.228-4.68c.24-.42.667-.536 1.066-.31 1.59.904 3.16 1.837 4.71 2.784.19.113.28.384.34.482.02.77-.62 1.18-1.2.85-1.56-.89-3.11-1.82-4.65-2.75-.4-.25-.49-.66-.25-1.07z" class="icon-path"/></symbol><symbol id="icon-douban" viewBox="0 0 32 32"><path d="M9.955 20.173c1.256 1.714 2.39 3.87 3.382 6.288h6.097c1.186-1.86 2.102-4.02 2.997-6.28l3.45 1.16c-.9 1.91-1.99 3.68-3.02 5.13h8.54l.05 3.04H.57v-2.9l9.35-.14c-.806-1.56-1.825-3.33-3.13-5.13l3.164-1.15zM1.535 2.5h28.93v2.893H1.535V2.5zm3.02 5.672l23.017.114v11.57H4.43l.126-11.684zm20.124 8.792l.12-5.942-17.48.156v5.786h17.36z" class="icon-path"/></symbol><symbol id="icon-netease-music" viewBox="0 0 32 32"><path d="M21.44-.014c.33.053.663.09.99.16 1.15.25 2.178.746 3.086 1.476.596.478.84 1.102.666 1.84-.155.665-.59 1.113-1.26 1.305-.633.18-1.206.043-1.726-.364-.66-.518-1.392-.875-2.27-.8-.743.066-1.453.83-1.39 1.514.03.306.14.604.22.905.14.53.285 1.06.427 1.592.024.09.048.164.18.17 1.997.107 3.798.744 5.402 1.923 1.577 1.16 2.87 2.552 3.735 4.3.635 1.284.99 2.64 1.085 4.06.125 1.892-.102 3.74-.854 5.487-1.74 4.058-4.82 6.676-9.14 7.88-1.64.457-3.33.636-5.03.54-3.54-.197-6.62-1.508-9.21-3.88-2.55-2.337-4.14-5.212-4.7-8.587-.75-4.59.4-8.707 3.46-12.277 1.68-1.96 3.78-3.374 6.22-4.286.84-.315 1.77-.022 2.23.697.47.74.36 1.69-.29 2.27-.18.17-.41.3-.65.39-3.73 1.49-6.19 4.11-7.17 7.93-.95 3.71-.11 7.11 2.31 10.1 1.52 1.88 3.48 3.14 5.86 3.75 1.54.4 3.09.43 4.65.19 1.62-.24 3.12-.76 4.47-1.67 1.86-1.24 3.18-2.9 3.85-5.01.57-1.82.59-3.66-.11-5.47-.56-1.45-1.57-2.57-2.83-3.5-.67-.49-1.39-.88-2.22-1.07-.03-.01-.07-.01-.14-.02.11.42.22.82.33 1.22.26.96.53 1.93.79 2.89.56 2.1.02 3.94-1.46 5.51-1.36 1.45-3.1 2.08-5.1 1.89-2.22-.21-3.8-1.39-4.84-3.3-.54-1-.77-2.07-.82-3.2-.07-1.79.36-3.45 1.41-4.93 1.13-1.59 2.7-2.61 4.54-3.24.15-.05.3-.09.47-.15-.1-.37-.2-.73-.29-1.09-.12-.5-.28-1-.34-1.507-.18-1.506.29-2.81 1.35-3.91C18.18.798 19.24.23 20.5.06l.416-.06h.57zm-3.945 11.672c-1.095.34-2.04.86-2.748 1.724-.948 1.158-1.137 2.488-.835 3.9.157.734.524 1.362 1.168 1.8.805.548 1.9.524 2.743-.045.86-.584 1.243-1.524.992-2.488-.275-1.06-.568-2.11-.853-3.17l-.467-1.73z" class="icon-path"/></symbol><symbol id="icon-v2ex" viewBox="0 0 32 32"><path d="M19.55 2.508H2.17c-.638 0-1.157.508-1.157 1.135V11.5H17.31c.34 0 .663.136.895.378l3.782 3.92c.085.087.085.223 0 .31l-3.78 3.958c-.234.244-.49.444-.83.444H1.012v7.866c0 .627.52 1.136 1.158 1.136h17.375c.383 0 .75-.15 1.02-.415l11.74-11.518c.914-.9.91-2.36-.008-3.25L20.565 2.92c-.27-.263-.635-.41-1.016-.41z" class="icon-path"/></symbol><symbol id="icon-circle"><circle cx="50%" cy="50%" r="50%"/></symbol><symbol id="icon-github-circle" viewBox="0 0 32 32"><use fill="#5f5f5f" xlink:href="#icon-circle"/><use height="19" y="7" fill="#fff" xlink:href="#icon-github"/></symbol><symbol id="icon-codepen-circle" viewBox="0 0 32 32"><use xlink:href="#icon-circle"/><use width="20" x="6" fill="#fff" xlink:href="#icon-codepen"/></symbol><symbol id="icon-mail-circle" viewBox="0 0 32 32"><use fill="#dd4b39" xlink:href="#icon-circle"/><use width="22" x="5" fill="#fff" xlink:href="#icon-mail"/></symbol><symbol id="icon-rss-circle" viewBox="0 0 32 32"><use fill="#fc9a2a" xlink:href="#icon-circle"/><use width="16" x="9" fill="#fff" xlink:href="#icon-rss"/></symbol><symbol id="icon-twitter-circle" viewBox="0 0 32 32"><use fill="#1da1f2" xlink:href="#icon-circle"/><use width="20" x="7" fill="#fff" xlink:href="#icon-twitter"/></symbol><symbol id="icon-weibo-circle" viewBox="0 0 32 32"><use fill="#e6162d" xlink:href="#icon-circle"/><use width="20" x="6" fill="#fff" xlink:href="#icon-weibo"/></symbol><symbol id="icon-zhihu-circle" viewBox="0 0 32 32"><use fill="#086acd" xlink:href="#icon-circle"/><use width="20" x="6" fill="#fff" xlink:href="#icon-zhihu"/></symbol><symbol id="icon-bilibili-circle" viewBox="0 0 32 32"><use fill="#f489ad" xlink:href="#icon-circle"/><use width="20" x="6" fill="#fff" xlink:href="#icon-bilibili"/></symbol><symbol id="icon-douban-circle" viewBox="0 0 32 32"><use fill="#259235" xlink:href="#icon-circle"/><use width="20" x="6" fill="#fff" xlink:href="#icon-douban"/></symbol><symbol id="icon-netease-music-circle" viewBox="0 0 32 32"><use fill="#ea0606" xlink:href="#icon-circle"/><use width="22" x="4.8" y="-.5" fill="#fff" xlink:href="#icon-netease-music"/></symbol><symbol id="icon-v2ex-circle" viewBox="0 0 32 32"><use fill="#1e1e1f" xlink:href="#icon-circle"/><use width="20" x="7" fill="#fff" xlink:href="#icon-v2ex"/></symbol></defs></svg>
