<svg xmlns="http://www.w3.org/2000/svg" width="2055" height="1439" style="background:#3a4144 url(themes/default/images/grid.png)" viewBox="-598 -316 2055 1439" font-family="Arial,&amp;quot;Microsoft Yahei&amp;quot;,&amp;quot;Heiti SC&amp;quot;"><defs><marker id="a" orient="auto" refX="6" viewBox="-7 -7 14 14" markerWidth="7" markerHeight="7" markerUnits="userSpaceOnUse"><path fill="#fff" d="M6 0A6 6 0 1 1-6 0 6 6 0 1 1 6 0"/></marker></defs><g text-rendering="optimize-speed"><g fill="none" stroke="#fff" stroke-width="2"><path d="M74.5.5A217.5 114.5 0 0 1 292-114" marker-end="url(#a)" transform="translate(762.5 279.5)"/><path d="M1192.5 166c15 0 15 16 30 16h134"/><path d="M74.5.5A217.5 19.5 0 0 1 292-19" marker-end="url(#a)" transform="translate(762.5 279.5)"/><path d="M1182.5 261c15 0 15-12 30-12h75"/><path d="M74.5.5A217.5 75.5 0 0 0 292 76M74.5.5A217.5 265.5 0 0 0 292 266" marker-end="url(#a)" transform="translate(762.5 279.5)"/><path d="M1182.5 261c15 0 15 43 30 43h184"/><path d="M74.5.5A217.5 170.5 0 0 0 292 171M74.5.5A217.5 560.5 0 0 0-143-560M74.5.5A217.5 490.5 0 0 0-143-490" marker-end="url(#a)" transform="translate(762.5 279.5)"/><path d="M443.5-210c-15 0-15 16-30 16h-290"/><path d="M74.5.5A249.5 407.5 0 0 0-175-407" marker-end="url(#a)" transform="translate(762.5 279.5)"/><path d="M435.5 253c-15 0-15-150-30-150h-115M1188.5 451c15 0 15-12 30-12h183M1188.5 451c15 0 15 43 30 43h219M1146.5 356c15 0 15 16 30 16h69M284.5-280c-15 0-15 16-30 16h-197M1157.5 546c15 0 15 16 30 16h126M302.5-127c-15 0-15-12-30-12h-282M302.5-127c-15 0-15 43-30 43h-276"/><path marker-end="url(#a)" d="M74.5.5A217.5 27.5 0 0 0-143-27" transform="translate(762.5 279.5)"/><path d="M290.5 103c-15 0-15-110-30-110h-150"/><path d="M290.5 103c-15 0-15-55-30-55h-215M290.5 103H5.5M290.5 103c-15 0-15 55-30 55h-301"/><path d="M290.5 103c-15 0-15 110-30 110H1.5M435.5 253c-15 0-15 154-30 154h-121M284.5 407c-15 0-15-111-30-111h-171M83.5 296c-15 0-15-28-30-28h-439M83.5 296c-15 0-15 27-30 27h-118M284.5 407c-15 0-15 55-30 55h-154"/><path marker-end="url(#a)" d="M74.5.5A217.5 264.5 0 0 1 292-264" transform="translate(762.5 279.5)"/><path d="M1138.5 16c15 0 15-67 30-67h264"/><path d="M1138.5 16c15 0 15-12 30-12h152M1138.5 16c15 0 15 43 30 43h166"/><path d="M1138.5 16c15 0 15 98 30 98h181M-134.5 490c-15 0-15-56-30-56h-92M-134.5 490c-15 0-15 55-30 55h-102M100.5 462c-15 0-15-84-30-84h-401M100.5 462c-15 0-15 28-30 28h-205M-134.5 490h-152M-256.5 434h-272M-286.5 490h-284M-266.5 545h-240"/><path marker-end="url(#a)" d="M74.5.5A217.5 560.5 0 0 1-143 561" transform="translate(762.5 279.5)"/><path d="M423.5 841c-15 0-15-204-30-204h-333M60.5 637c-15 0-15-28-30-28h-54M60.5 637c-15 0-15 27-30 27h-273"/><path d="M423.5 841c-15 0-15-39-30-39h-492M-98.5 802c-15 0-15-83-30-83h-78"/><path d="M-98.5 802c-15 0-15-28-30-28h-78M-98.5 802c-15 0-15 82-30 82h-449"/><path d="M-98.5 802c-15 0-15 27-30 27h-114M423.5 841c-15 0-15 126-30 126h-142M251.5 967c-15 0-15-28-30-28H1.5M251.5 967c-15 0-15 27-30 27h-114"/><path d="M423.5 841c-15 0-15 236-30 236h-277M116.5 1077c-15 0-15-28-30-28h-210M116.5 1077c-15 0-15 27-30 27h-78"/></g><path fill="rgba(0, 0, 0, .25)" d="M771.5 256.5h139a30 30 0 0 1 30 30v-3a30 30 0 0 1-30 30h-139a30 30 0 0 1-30-30v3a30 30 0 0 1 30-30z"/><path fill="#FEDB00" stroke="#FEDB00" d="M767.5 251.5h139a30 30 0 0 1 30 30v-3a30 30 0 0 1-30 30h-139a30 30 0 0 1-30-30v3a30 30 0 0 1 30-30z"/><text text-rendering="inherit" dy="7.5" font-size="24" cursor="default" transform="translate(762.5 279.5)">Handlebars.js</text><path fill="rgba(0, 0, 0, .25)" d="M1070.5 155.5h106a10 10 0 0 1 10 10v10a10 10 0 0 1-10 10h-106a10 10 0 0 1-10-10v-10a10 10 0 0 1 10-10z"/><g cursor="pointer"><path fill="#fff" stroke="gray" d="M1192.5 165.5a5 5 0 1 1-10 0 5 5 0 1 1 10 0"/><path fill="none" stroke="#000" d="M1184 165.5h7"/></g><path fill="#a4c5c0" stroke="#a4c5c0" d="M1066.5 150.5h106a10 10 0 0 1 10 10v10a10 10 0 0 1-10 10h-106a10 10 0 0 1-10-10v-10a10 10 0 0 1 10-10z"/><text text-rendering="inherit" dy="6" fill="#333" font-size="16" cursor="text" transform="translate(1076.5 165.5)">Expressions</text><path fill="none" d="M1227.5 153.5h114a5 5 0 0 1 5 5v15a5 5 0 0 1-5 5h-114a5 5 0 0 1-5-5v-15a5 5 0 0 1 5-5z"/><text text-rendering="inherit" dy="4.5" fill="#fff" font-size="12" cursor="default" transform="translate(1232.5 165.5)">&amp;lt;div&amp;gt; {{ xxx }} &amp;lt;/div&amp;gt;</text><path fill="rgba(0, 0, 0, .25)" d="M1070.5 250.5h96a10 10 0 0 1 10 10v10a10 10 0 0 1-10 10h-96a10 10 0 0 1-10-10v-10a10 10 0 0 1 10-10z"/><g cursor="pointer"><path fill="#fff" stroke="gray" d="M1182.5 260.5a5 5 0 1 1-10 0 5 5 0 1 1 10 0"/><path fill="none" stroke="#000" d="M1174 260.5h7"/></g><path fill="#a4c5c0" stroke="#a4c5c0" d="M1066.5 245.5h96a10 10 0 0 1 10 10v10a10 10 0 0 1-10 10h-96a10 10 0 0 1-10-10v-10a10 10 0 0 1 10-10z"/><text text-rendering="inherit" dy="6" fill="#333" font-size="16" cursor="text" transform="translate(1076.5 260.5)">Comments</text><path fill="none" d="M1217.5 220.5h55a5 5 0 0 1 5 5v15a5 5 0 0 1-5 5h-55a5 5 0 0 1-5-5v-15a5 5 0 0 1 5-5z"/><text text-rendering="inherit" dy="4.5" fill="#fff" font-size="12" transform="translate(1222.5 232.5)">{{! xxxx }}</text><path fill="none" d="M1217.5 275.5h164a5 5 0 0 1 5 5v15a5 5 0 0 1-5 5h-164a5 5 0 0 1-5-5v-15a5 5 0 0 1 5-5z"/><text text-rendering="inherit" dy="4.5" fill="#fff" font-size="12" cursor="text" transform="translate(1222.5 287.5)">&amp;lt;!-- xxx --&amp;gt; (会输出到 HTML)</text><path fill="rgba(0, 0, 0, .25)" d="M1070.5 345.5h60a10 10 0 0 1 10 10v10a10 10 0 0 1-10 10h-60a10 10 0 0 1-10-10v-10a10 10 0 0 1 10-10z"/><g cursor="pointer"><path fill="#fff" stroke="gray" d="M1146.5 355.5a5 5 0 1 1-10 0 5 5 0 1 1 10 0"/><path fill="none" stroke="#000" d="M1138 355.5h7"/></g><path fill="#a4c5c0" stroke="#a4c5c0" d="M1066.5 340.5h60a10 10 0 0 1 10 10v10a10 10 0 0 1-10 10h-60a10 10 0 0 1-10-10v-10a10 10 0 0 1 10-10z"/><text text-rendering="inherit" dy="6" fill="#333" font-size="16" cursor="default" transform="translate(1076.5 355.5)">Paths</text><path fill="rgba(0, 0, 0, .25)" d="M308.5-290.5h303a10 10 0 0 1 10 10v10a10 10 0 0 1-10 10h-303a10 10 0 0 1-10-10v-10a10 10 0 0 1 10-10z"/><g cursor="pointer"><path fill="#fff" stroke="gray" d="M294.5-280.5a5 5 0 1 1-10 0 5 5 0 1 1 10 0"/><path fill="none" stroke="#000" d="M286-280.5h7"/></g><path fill="#a4c5c0" stroke="#a4c5c0" d="M304.5-295.5h303a10 10 0 0 1 10 10v10a10 10 0 0 1-10 10h-303a10 10 0 0 1-10-10v-10a10 10 0 0 1 10-10z"/><text text-rendering="inherit" dy="6" fill="#333" font-size="16" cursor="default" transform="translate(314.5 -280.5)">Context (&amp;quot;object data&amp;quot;, &amp;quot;data&amp;quot; or &amp;quot;object&amp;quot;)</text><path fill="rgba(0, 0, 0, .25)" d="M467.5-220.5h144a10 10 0 0 1 10 10v10a10 10 0 0 1-10 10h-144a10 10 0 0 1-10-10v-10a10 10 0 0 1 10-10z"/><g cursor="pointer"><path fill="#fff" stroke="gray" d="M453.5-210.5a5 5 0 1 1-10 0 5 5 0 1 1 10 0"/><path fill="none" stroke="#000" d="M445-210.5h7"/></g><path fill="#a4c5c0" stroke="#a4c5c0" d="M463.5-225.5h144a10 10 0 0 1 10 10v10a10 10 0 0 1-10 10h-144a10 10 0 0 1-10-10v-10a10 10 0 0 1 10-10z"/><text text-rendering="inherit" dy="6" fill="#333" font-size="16" cursor="default" transform="translate(473.5 -210.5)">Triple Stash {{{ }}}</text><path fill="none" d="M138.5-222.5h270a5 5 0 0 1 5 5v15a5 5 0 0 1-5 5h-270a5 5 0 0 1-5-5v-15a5 5 0 0 1 5-5z"/><text text-rendering="inherit" dy="4.5" fill="#fff" font-size="12" cursor="text" transform="translate(143.5 -210.5)">不对输出的 HTML 进行转义 (Non-escape HTML)</text><path fill="rgba(0, 0, 0, .25)" d="M326.5-137.5h253a10 10 0 0 1 10 10v10a10 10 0 0 1-10 10h-253a10 10 0 0 1-10-10v-10a10 10 0 0 1 10-10z"/><g cursor="pointer"><path fill="#fff" stroke="gray" d="M312.5-127.5a5 5 0 1 1-10 0 5 5 0 1 1 10 0"/><path fill="none" stroke="#000" d="M304-127.5h7"/></g><path fill="#a4c5c0" stroke="#a4c5c0" d="M322.5-142.5h253a10 10 0 0 1 10 10v10a10 10 0 0 1-10 10h-253a10 10 0 0 1-10-10v-10a10 10 0 0 1 10-10z"/><text text-rendering="inherit" dy="6" fill="#333" font-size="16" cursor="default" transform="translate(332.5 -127.5)">Partials (sub-templates) 模板嵌套</text><path fill="rgba(0, 0, 0, .25)" d="M1070.5 440.5h102a10 10 0 0 1 10 10v10a10 10 0 0 1-10 10h-102a10 10 0 0 1-10-10v-10a10 10 0 0 1 10-10z"/><g cursor="pointer"><path fill="#fff" stroke="gray" d="M1188.5 450.5a5 5 0 1 1-10 0 5 5 0 1 1 10 0"/><path fill="none" stroke="#000" d="M1180 450.5h7"/></g><path fill="#a4c5c0" stroke="#a4c5c0" d="M1066.5 435.5h102a10 10 0 0 1 10 10v10a10 10 0 0 1-10 10h-102a10 10 0 0 1-10-10v-10a10 10 0 0 1 10-10z"/><text text-rendering="inherit" dy="6" fill="#333" font-size="16" cursor="text" transform="translate(1076.5 450.5)">Parent Path</text><path fill="none" d="M1223.5 410.5h163a5 5 0 0 1 5 5v15a5 5 0 0 1-5 5h-163a5 5 0 0 1-5-5v-15a5 5 0 0 1 5-5z"/><text text-rendering="inherit" dy="4.5" fill="#fff" font-size="12" cursor="text" transform="translate(1228.5 422.5)">{{ ../ }} (访问当前对象的双亲)</text><path fill="none" d="M1223.5 465.5h199a5 5 0 0 1 5 5v15a5 5 0 0 1-5 5h-199a5 5 0 0 1-5-5v-15a5 5 0 0 1 5-5z"/><text text-rendering="inherit" dy="4.5" fill="#fff" font-size="12" cursor="text" transform="translate(1228.5 477.5)">{{ ../xxx }} (访问当前对象的 xxx 兄弟)</text><path fill="none" d="M1181.5 343.5h49a5 5 0 0 1 5 5v15a5 5 0 0 1-5 5h-49a5 5 0 0 1-5-5v-15a5 5 0 0 1 5-5z"/><text text-rendering="inherit" dy="4.5" fill="#fff" font-size="12" cursor="text" transform="translate(1186.5 355.5)">{{ a.b }}</text><path fill="none" d="M72.5-292.5h177a5 5 0 0 1 5 5v15a5 5 0 0 1-5 5h-177a5 5 0 0 1-5-5v-15a5 5 0 0 1 5-5z"/><text text-rendering="inherit" dy="4.5" fill="#fff" font-size="12" cursor="text" transform="translate(77.5 -280.5)">被传到 Handlebars 函数的对象</text><path fill="none" d="M5.5-167.5h262a5 5 0 0 1 5 5v15a5 5 0 0 1-5 5H5.5a5 5 0 0 1-5-5v-15a5 5 0 0 1 5-5z"/><text text-rendering="inherit" dy="4.5" fill="#fff" font-size="12" cursor="text" transform="translate(10.5 -155.5)">Handlebars.registerPartial(&amp;quot;a&amp;quot;, $(&amp;quot;#id&amp;quot;).html());</text><path fill="none" d="M11.5-112.5h256a5 5 0 0 1 5 5v15a5 5 0 0 1-5 5h-256a5 5 0 0 1-5-5v-15a5 5 0 0 1 5-5z"/><text text-rendering="inherit" dy="4.5" fill="#fff" font-size="12" cursor="text" transform="translate(16.5 -100.5)">在其它模板中用 {{&amp;gt; a }} 即可将上面的内容注入</text><path fill="rgba(0, 0, 0, .25)" d="M1070.5 535.5h71a10 10 0 0 1 10 10v10a10 10 0 0 1-10 10h-71a10 10 0 0 1-10-10v-10a10 10 0 0 1 10-10z"/><g cursor="pointer"><path fill="#fff" stroke="gray" d="M1157.5 545.5a5 5 0 1 1-10 0 5 5 0 1 1 10 0"/><path fill="none" stroke="#000" d="M1149 545.5h7"/></g><path fill="#a4c5c0" stroke="#a4c5c0" d="M1066.5 530.5h71a10 10 0 0 1 10 10v10a10 10 0 0 1-10 10h-71a10 10 0 0 1-10-10v-10a10 10 0 0 1 10-10z"/><text text-rendering="inherit" dy="6" fill="#333" font-size="16" cursor="text" transform="translate(1076.5 545.5)">Blocks</text><path fill="none" d="M1192.5 533.5h106a5 5 0 0 1 5 5v15a5 5 0 0 1-5 5h-106a5 5 0 0 1-5-5v-15a5 5 0 0 1 5-5z"/><text text-rendering="inherit" dy="4.5" fill="#fff" font-size="12" cursor="text" transform="translate(1197.5 545.5)">{{#xxx}} ...... {{/xxx}}</text><g cursor="pointer"><path fill="#fff" stroke="gray" d="M300.5 87a5 5 0 1 1-10 0 5 5 0 1 1 10 0"/><path fill="none" stroke="#000" d="M292 87h7"/></g><path fill="none" d="M305.5 74.5h95a5 5 0 0 1 5 5v15a5 5 0 0 1-5 5h-95a5 5 0 0 1-5-5v-15a5 5 0 0 1 5-5z"/><text text-rendering="inherit" dy="4.5" fill="#fff" font-size="12" cursor="default" transform="translate(310.5 86.5)">Built-in Helpers</text><g><path fill="rgba(0, 0, 0, .25)" d="M459.5 242.5h152a10 10 0 0 1 10 10v10a10 10 0 0 1-10 10h-152a10 10 0 0 1-10-10v-10a10 10 0 0 1 10-10z"/><g cursor="pointer"><path fill="#fff" stroke="gray" d="M445.5 252.5a5 5 0 1 1-10 0 5 5 0 1 1 10 0"/><path fill="none" stroke="#000" d="M437 252.5h7"/></g><path fill="#a4c5c0" stroke="#a4c5c0" d="M455.5 237.5h152a10 10 0 0 1 10 10v10a10 10 0 0 1-10 10h-152a10 10 0 0 1-10-10v-10a10 10 0 0 1 10-10z"/><text text-rendering="inherit" dy="6" fill="#333" font-size="16" cursor="default" transform="translate(465.5 252.5)">Helpers (处理逻辑)</text></g><g><path fill="none" d="M125.5-35.5h130a5 5 0 0 1 5 5v15a5 5 0 0 1-5 5h-130a5 5 0 0 1-5-5v-15a5 5 0 0 1 5-5z"/><text text-rendering="inherit" dy="4.5" fill="#fff" font-size="12" cursor="default" transform="translate(130.5 -23.5)">{{#each}} ...... {{/each}}</text></g><g><path fill="none" d="M60.5 19.5h195a5 5 0 0 1 5 5v15a5 5 0 0 1-5 5h-195a5 5 0 0 1-5-5v-15a5 5 0 0 1 5-5z"/><text text-rendering="inherit" dy="4.5" fill="#fff" font-size="12" cursor="default" transform="translate(65.5 31.5)">{{#if xxx }} ..... {{#else xxx }} ..... {{/if}}</text></g><g><path fill="none" d="M20.5 74.5h235a5 5 0 0 1 5 5v15a5 5 0 0 1-5 5h-235a5 5 0 0 1-5-5v-15a5 5 0 0 1 5-5z"/><text text-rendering="inherit" dy="4.5" fill="#fff" font-size="12" cursor="text" transform="translate(25.5 86.5)">{{#unless xxx }} ...... {{/unless}} (判断非值)</text></g><g><path fill="none" d="M-25.5 129.5h281a5 5 0 0 1 5 5v15a5 5 0 0 1-5 5h-281a5 5 0 0 1-5-5v-15a5 5 0 0 1 5-5z"/><text text-rendering="inherit" dy="4.5" fill="#fff" font-size="12" cursor="default" transform="translate(-20.5 141.5)">{{#with xxx }} ... {{/with}} (与 JavaScript 的 with 一样)</text></g><g><path fill="none" d="M16.5 184.5h239a5 5 0 0 1 5 5v15a5 5 0 0 1-5 5h-239a5 5 0 0 1-5-5v-15a5 5 0 0 1 5-5z"/><text text-rendering="inherit" dy="4.5" fill="#fff" font-size="12" cursor="default" transform="translate(21.5 196.5)">{{{raw-helper}}} ...不处理... {{{/raw-helper}}}</text></g><g><g cursor="pointer"><path fill="#fff" stroke="gray" d="M294.5 391a5 5 0 1 1-10 0 5 5 0 1 1 10 0"/><path fill="none" stroke="#000" d="M286 391h7"/></g><path fill="none" d="M299.5 378.5h101a5 5 0 0 1 5 5v15a5 5 0 0 1-5 5h-101a5 5 0 0 1-5-5v-15a5 5 0 0 1 5-5z"/><text text-rendering="inherit" dy="4.5" fill="#fff" font-size="12" cursor="default" transform="translate(304.5 390.5)">Custom Helpers</text></g><g><g cursor="pointer"><path fill="#fff" stroke="gray" d="M93.5 280a5 5 0 1 1-10 0 5 5 0 1 1 10 0"/><path fill="none" stroke="#000" d="M85 280h7"/></g><path fill="none" d="M98.5 267.5h151a5 5 0 0 1 5 5v15a5 5 0 0 1-5 5h-151a5 5 0 0 1-5-5v-15a5 5 0 0 1 5-5z"/><text text-rendering="inherit" dy="4.5" fill="#fff" font-size="12" transform="translate(103.5 279.5)">Custom Function Helpers</text></g><g><path fill="none" d="M-370.5 239.5h419a5 5 0 0 1 5 5v15a5 5 0 0 1-5 5h-419a5 5 0 0 1-5-5v-15a5 5 0 0 1 5-5z"/><text text-rendering="inherit" dy="4.5" fill="#fff" font-size="12" cursor="text" transform="translate(-365.5 251.5)">Handlebars.registerHelper (&amp;quot;axx&amp;quot;, function (bxx) { ...... }); (先注册函数 Helper)</text></g><g><path fill="none" d="M-49.5 294.5h98a5 5 0 0 1 5 5v15a5 5 0 0 1-5 5h-98a5 5 0 0 1-5-5v-15a5 5 0 0 1 5-5z"/><text text-rendering="inherit" dy="4.5" fill="#fff" font-size="12" cursor="text" transform="translate(-44.5 306.5)">{{axx bxx}} (使用)</text></g><g><g cursor="pointer"><path fill="#fff" stroke="gray" d="M110.5 446a5 5 0 1 1-10 0 5 5 0 1 1 10 0"/><path fill="none" stroke="#000" d="M102 446h7"/></g><path fill="none" d="M115.5 433.5h134a5 5 0 0 1 5 5v15a5 5 0 0 1-5 5h-134a5 5 0 0 1-5-5v-15a5 5 0 0 1 5-5z"/><text text-rendering="inherit" dy="4.5" fill="#fff" font-size="12" cursor="text" transform="translate(120.5 445.5)">Custom Block Helpers</text></g><g><path fill="rgba(0, 0, 0, .25)" d="M1070.5 5.5h52a10 10 0 0 1 10 10v10a10 10 0 0 1-10 10h-52a10 10 0 0 1-10-10v-10a10 10 0 0 1 10-10z"/><g cursor="pointer"><path fill="#fff" stroke="gray" d="M1138.5 15.5a5 5 0 1 1-10 0 5 5 0 1 1 10 0"/><path fill="none" stroke="#000" d="M1130 15.5h7"/></g><path fill="#a4c5c0" stroke="#a4c5c0" d="M1066.5.5h52a10 10 0 0 1 10 10v10a10 10 0 0 1-10 10h-52a10 10 0 0 1-10-10v-10a10 10 0 0 1 10-10z"/><text text-rendering="inherit" dy="6" fill="#333" font-size="16" cursor="default" transform="translate(1076.5 15.5)">使用</text></g><g><path fill="none" d="M1173.5-79.5h244a5 5 0 0 1 5 5v15a5 5 0 0 1-5 5h-244a5 5 0 0 1-5-5v-15a5 5 0 0 1 5-5z"/><text text-rendering="inherit" dy="4.5" fill="#fff" font-size="12" cursor="text" transform="translate(1178.5 -67.5)">1. var a = Handlebars.compil(&amp;quot;html string&amp;quot;);</text></g><g><path fill="none" d="M1173.5-24.5h132a5 5 0 0 1 5 5v15a5 5 0 0 1-5 5h-132a5 5 0 0 1-5-5v-15a5 5 0 0 1 5-5z"/><text text-rendering="inherit" dy="4.5" fill="#fff" font-size="12" cursor="default" transform="translate(1178.5 -12.5)">2. var dataObject = ......</text></g><g><path fill="none" d="M1173.5 30.5h146a5 5 0 0 1 5 5v15a5 5 0 0 1-5 5h-146a5 5 0 0 1-5-5v-15a5 5 0 0 1 5-5z"/><text text-rendering="inherit" dy="4.5" fill="#fff" font-size="12" cursor="text" transform="translate(1178.5 42.5)">3. var str = a(dataObject);</text></g><g><path fill="none" d="M1173.5 85.5h161a5 5 0 0 1 5 5v15a5 5 0 0 1-5 5h-161a5 5 0 0 1-5-5v-15a5 5 0 0 1 5-5z"/><text text-rendering="inherit" dy="4.5" fill="#fff" font-size="12" cursor="default" transform="translate(1178.5 97.5)">4. $(domelem).append(str);</text></g><g><g cursor="pointer"><path fill="#fff" stroke="gray" d="M-256.5 529a5 5 0 1 1-10 0 5 5 0 1 1 10 0"/><path fill="none" stroke="#000" d="M-265 529h7"/></g><path fill="none" d="M-251.5 516.5h82a5 5 0 0 1 5 5v15a5 5 0 0 1-5 5h-82a5 5 0 0 1-5-5v-15a5 5 0 0 1 5-5z"/><text text-rendering="inherit" dy="4.5" fill="#fff" font-size="12" cursor="default" transform="translate(-246.5 528.5)">options.hash</text></g><g><path fill="none" d="M-315.5 349.5h381a5 5 0 0 1 5 5v15a5 5 0 0 1-5 5h-381a5 5 0 0 1-5-5v-15a5 5 0 0 1 5-5z"/><text text-rendering="inherit" dy="4.5" fill="#fff" font-size="12" cursor="text" transform="translate(-310.5 361.5)">Handlebars.registerHelper (&amp;quot;a&amp;quot;, function (dataObject, options) {......});</text></g><g><g cursor="pointer"><path fill="#fff" stroke="gray" d="M-124.5 474a5 5 0 1 1-10 0 5 5 0 1 1 10 0"/><path fill="none" stroke="#000" d="M-133 474h7"/></g><path fill="none" d="M-119.5 461.5h185a5 5 0 0 1 5 5v15a5 5 0 0 1-5 5h-185a5 5 0 0 1-5-5v-15a5 5 0 0 1 5-5z"/><text text-rendering="inherit" dy="4.5" fill="#fff" font-size="12" transform="translate(-114.5 473.5)">options 为 Handlebars 自动添加</text></g><g><g cursor="pointer"><path fill="#fff" stroke="gray" d="M-246.5 418a5 5 0 1 1-10 0 5 5 0 1 1 10 0"/><path fill="none" stroke="#000" d="M-255 418h7"/></g><path fill="none" d="M-241.5 405.5h72a5 5 0 0 1 5 5v15a5 5 0 0 1-5 5h-72a5 5 0 0 1-5-5v-15a5 5 0 0 1 5-5z"/><text text-rendering="inherit" dy="4.5" fill="#fff" font-size="12" cursor="text" transform="translate(-236.5 417.5)">options.fn()</text></g><g><path fill="none" d="M-513.5 405.5h222a5 5 0 0 1 5 5v15a5 5 0 0 1-5 5h-222a5 5 0 0 1-5-5v-15a5 5 0 0 1 5-5z"/><text text-rendering="inherit" dy="4.5" fill="#fff" font-size="12" cursor="text" transform="translate(-508.5 417.5)">为模板填充数据，与“使用”的第三步一样</text></g><g><g cursor="pointer"><path fill="#fff" stroke="gray" d="M-276.5 474a5 5 0 1 1-10 0 5 5 0 1 1 10 0"/><path fill="none" stroke="#000" d="M-285 474h7"/></g><path fill="none" d="M-271.5 461.5h102a5 5 0 0 1 5 5v15a5 5 0 0 1-5 5h-102a5 5 0 0 1-5-5v-15a5 5 0 0 1 5-5z"/><text text-rendering="inherit" dy="4.5" fill="#fff" font-size="12" cursor="text" transform="translate(-266.5 473.5)">options.inverse()</text></g><g><path fill="none" d="M-555.5 461.5h234a5 5 0 0 1 5 5v15a5 5 0 0 1-5 5h-234a5 5 0 0 1-5-5v-15a5 5 0 0 1 5-5z"/><text text-rendering="inherit" dy="4.5" fill="#fff" font-size="12" cursor="text" transform="translate(-550.5 473.5)">在非值情况下才填充模板（else, unless）</text></g><g><path fill="none" d="M-491.5 516.5h190a5 5 0 0 1 5 5v15a5 5 0 0 1-5 5h-190a5 5 0 0 1-5-5v-15a5 5 0 0 1 5-5z"/><text text-rendering="inherit" dy="4.5" fill="#fff" font-size="12" cursor="text" transform="translate(-486.5 528.5)">传进来的对象键值对的字符串表示</text></g><g><path fill="rgba(0, 0, 0, .25)" d="M447.5 830.5h164a10 10 0 0 1 10 10v10a10 10 0 0 1-10 10h-164a10 10 0 0 1-10-10v-10a10 10 0 0 1 10-10z"/><g cursor="pointer"><path fill="#fff" stroke="gray" d="M433.5 840.5a5 5 0 1 1-10 0 5 5 0 1 1 10 0"/><path fill="none" stroke="#000" d="M425 840.5h7"/></g><path fill="#a4c5c0" stroke="#a4c5c0" d="M443.5 825.5h164a10 10 0 0 1 10 10v10a10 10 0 0 1-10 10h-164a10 10 0 0 1-10-10v-10a10 10 0 0 1 10-10z"/><text text-rendering="inherit" dy="6" fill="#333" font-size="16" transform="translate(453.5 840.5)">加载模板的四种方法</text></g><g><g cursor="pointer"><path fill="#fff" stroke="gray" d="M70.5 621a5 5 0 1 1-10 0 5 5 0 1 1 10 0"/><path fill="none" stroke="#000" d="M62 621h7"/></g><path fill="none" d="M75.5 608.5h313a5 5 0 0 1 5 5v15a5 5 0 0 1-5 5h-313a5 5 0 0 1-5-5v-15a5 5 0 0 1 5-5z"/><text text-rendering="inherit" dy="4.5" fill="#fff" font-size="12" cursor="text" transform="translate(80.5 620.5)">&amp;lt;script type=&amp;quot;x-handlebars-template&amp;quot;&amp;gt; ...模板... &amp;lt;/script&amp;gt;</text></g><g><path fill="none" d="M-8.5 580.5h34a5 5 0 0 1 5 5v15a5 5 0 0 1-5 5h-34a5 5 0 0 1-5-5v-15a5 5 0 0 1 5-5z"/><text text-rendering="inherit" dy="4.5" fill="#fff" font-size="12" cursor="default" transform="translate(-3.5 592.5)">方便</text></g><g><path fill="none" d="M-227.5 635.5h253a5 5 0 0 1 5 5v15a5 5 0 0 1-5 5h-253a5 5 0 0 1-5-5v-15a5 5 0 0 1 5-5z"/><text text-rendering="inherit" dy="4.5" fill="#fff" font-size="12" cursor="text" transform="translate(-222.5 647.5)">灵活度不高、难以管理、常驻DOM、内存浪费</text></g><g><g cursor="pointer"><path fill="#fff" stroke="gray" d="M-88.5 786a5 5 0 1 1-10 0 5 5 0 1 1 10 0"/><path fill="none" stroke="#000" d="M-97 786h7"/></g><path fill="none" d="M-83.5 773.5h472a5 5 0 0 1 5 5v15a5 5 0 0 1-5 5h-472a5 5 0 0 1-5-5v-15a5 5 0 0 1 5-5z"/><text text-rendering="inherit" dy="4.5" fill="#fff" font-size="12" cursor="default" transform="translate(-78.5 785.5)">每个模板作为一个 html 文件，自定义一个工厂函数去请求、处理，只维护一个模板对象</text></g><g><path fill="none" d="M-191.5 690.5h58a5 5 0 0 1 5 5v15a5 5 0 0 1-5 5h-58a5 5 0 0 1-5-5v-15a5 5 0 0 1 5-5z"/><text text-rendering="inherit" dy="4.5" fill="#fff" font-size="12" cursor="default" transform="translate(-186.5 702.5)">灵活方便</text></g><g><path fill="none" d="M-191.5 745.5h58a5 5 0 0 1 5 5v15a5 5 0 0 1-5 5h-58a5 5 0 0 1-5-5v-15a5 5 0 0 1 5-5z"/><text text-rendering="inherit" dy="4.5" fill="#fff" font-size="12" transform="translate(-186.5 757.5)">容易管理</text></g><g><path fill="none" d="M-562.5 855.5h429a5 5 0 0 1 5 5v15a5 5 0 0 1-5 5h-429a5 5 0 0 1-5-5v-15a5 5 0 0 1 5-5z"/><text text-rendering="inherit" dy="4.5" fill="#fff" font-size="12" transform="translate(-557.5 867.5)">http://stackoverflow.com/questions/8366733/external-template-in-underscore</text></g><g><path fill="none" d="M-227.5 800.5h94a5 5 0 0 1 5 5v15a5 5 0 0 1-5 5h-94a5 5 0 0 1-5-5v-15a5 5 0 0 1 5-5z"/><text text-rendering="inherit" dy="4.5" fill="#fff" font-size="12" cursor="default" transform="translate(-222.5 812.5)">函数很容易实现</text></g><g><g cursor="pointer"><path fill="#fff" stroke="gray" d="M261.5 951a5 5 0 1 1-10 0 5 5 0 1 1 10 0"/><path fill="none" stroke="#000" d="M253 951h7"/></g><path fill="none" d="M266.5 938.5h122a5 5 0 0 1 5 5v15a5 5 0 0 1-5 5h-122a5 5 0 0 1-5-5v-15a5 5 0 0 1 5-5z"/><text text-rendering="inherit" dy="4.5" fill="#fff" font-size="12" cursor="text" transform="translate(271.5 950.5)">Require.js AMD 调用</text></g><g><path fill="none" d="M16.5 910.5h200a5 5 0 0 1 5 5v15a5 5 0 0 1-5 5h-200a5 5 0 0 1-5-5v-15a5 5 0 0 1 5-5z"/><text text-rendering="inherit" dy="4.5" fill="#fff" font-size="12" cursor="text" transform="translate(21.5 922.5)">可以使用 AMD 和 Require.js 的优势</text></g><g><path fill="none" d="M122.5 965.5h94a5 5 0 0 1 5 5v15a5 5 0 0 1-5 5h-94a5 5 0 0 1-5-5v-15a5 5 0 0 1 5-5z"/><text text-rendering="inherit" dy="4.5" fill="#fff" font-size="12" transform="translate(127.5 977.5)">新手要学习规范</text></g><g><g cursor="pointer"><path fill="#fff" stroke="gray" d="M126.5 1061a5 5 0 1 1-10 0 5 5 0 1 1 10 0"/><path fill="none" stroke="#000" d="M118 1061h7"/></g><path fill="none" d="M131.5 1048.5h257a5 5 0 0 1 5 5v15a5 5 0 0 1-5 5h-257a5 5 0 0 1-5-5v-15a5 5 0 0 1 5-5z"/><text text-rendering="inherit" dy="4.5" fill="#fff" font-size="12" cursor="text" transform="translate(136.5 1060.5)">服务器端预编译（Node.js），客户端填充模板</text></g><g><path fill="none" d="M-108.5 1020.5h190a5 5 0 0 1 5 5v15a5 5 0 0 1-5 5h-190a5 5 0 0 1-5-5v-15a5 5 0 0 1 5-5z"/><text text-rendering="inherit" dy="4.5" fill="#fff" font-size="12" cursor="default" transform="translate(-103.5 1032.5)">减少了客户端的压力，加快了速度</text></g><g><path fill="none" d="M23.5 1075.5h58a5 5 0 0 1 5 5v15a5 5 0 0 1-5 5h-58a5 5 0 0 1-5-5v-15a5 5 0 0 1 5-5z"/><text text-rendering="inherit" dy="4.5" fill="#fff" font-size="12" transform="translate(28.5 1087.5)">修改麻烦</text></g></g></svg>